<?xml version="1.0" encoding="UTF-8"?>
<!DOCTYPE svg PUBLIC "-//W3C//DTD SVG 1.1//EN" "http://www.w3.org/Graphics/SVG/1.1/DTD/svg11.dtd">
<!-- Creator: CorelDRAW -->
<svg xmlns="http://www.w3.org/2000/svg" xml:space="preserve" width="2048px" height="2048px" style="shape-rendering:geometricPrecision; text-rendering:geometricPrecision; image-rendering:optimizeQuality; fill-rule:evenodd; clip-rule:evenodd"
viewBox="0 0 2048 2048"
 xmlns:xlink="http://www.w3.org/1999/xlink">
 <defs>
  <style type="text/css">
   <![CDATA[
    .fil5 {fill:none}
    .fil3 {fill:#009BAE}
    .fil1 {fill:#00ACC1}
    .fil4 {fill:#E6A100}
    .fil2 {fill:#FFB300}
    .fil0 {fill:#455A64;fill-rule:nonzero}
   ]]>
  </style>
 </defs>
 <g id="Layer_x0020_1">
  <metadata id="CorelCorpID_0Corel-Layer"/>
  <g id="_355507544">
   <path id="_490151000" class="fil0" d="M1057.39 575.999l0 319.999c-10.8945,-3.92008 -22.0441,-5.97048 -33.3922,-5.97048 -11.348,0 -22.4977,2.0504 -33.3922,5.97048l0 -319.999c10.8945,3.92008 22.0441,5.9693 33.3922,5.9693 11.348,0 22.4977,-2.04921 33.3922,-5.9693z"/>
   <path id="_490151312" class="fil0" d="M1057.39 1152l0 319.999c-10.8945,-3.92008 -22.0441,-5.9693 -33.3922,-5.9693 -11.348,0 -22.4977,2.04921 -33.3922,5.9693l0 -319.999c10.8945,3.92008 22.0441,5.97048 33.3922,5.97048 11.348,0 22.4977,-2.0504 33.3922,-5.97048z"/>
   <path id="_490150760" class="fil0" d="M1151.16 489.543l407.292 407.292c-21.8847,8.93032 -40.7303,21.9484 -55.95,38.4863l-389.829 -389.829c16.5378,-15.2221 29.5559,-34.0654 38.4874,-55.9489z"/>
   <path id="_490151168" class="fil0" d="M512.168 874.211l362.047 -362.046c9.64961,21.1654 22.9914,39.6851 39.4559,54.9792l-346.523 346.522c-15.2941,-16.4646 -33.8138,-29.804 -54.9804,-39.4548z"/>
   <path id="_490151120" class="fil0" d="M896.838 1558.46l-407.293 -407.294c21.8847,-8.93032 40.7292,-21.9473 55.95,-38.4839l389.83 389.829c-16.539,15.2209 -29.5571,34.063 -38.4874,55.9489z"/>
   <path id="_490151216" class="fil0" d="M1535.83 1173.79l-362.042 362.045c-9.65198,-21.1654 -22.9925,-39.6863 -39.4571,-54.9792l346.522 -346.523c15.2929,16.4646 33.8138,29.8051 54.978,39.4571z"/>
   <path id="_490149896" class="fil0" d="M1504.01 1057.58l-384.006 0c4.7563,-10.9547 7.23544,-22.1669 7.23544,-33.5799 0,-11.2831 -2.4378,-22.3689 -7.08544,-33.2044l383.703 0c-4.65118,10.8354 -7.0819,21.9213 -7.0819,33.2044 0,11.4142 2.4815,22.6252 7.23544,33.5799z"/>
   <path id="_490150352" class="fil0" d="M928.001 1057.58l-384.006 0c4.75394,-10.9547 7.23544,-22.1658 7.23544,-33.5799 0,-11.2831 -2.43071,-22.3689 -7.0819,-33.2044l383.703 0c-4.64764,10.8354 -7.08544,21.9213 -7.08544,33.2044 0,11.413 2.47914,22.6252 7.23544,33.5799z"/>
   <circle id="_490150376" class="fil1" cx="447.999" cy="1024" r="192"/>
   <circle id="_490150136" class="fil1" cx="1600" cy="1024" r="192"/>
   <circle id="_490150232" class="fil1" transform="matrix(3.17524E-014 1.20001 -1.20001 3.17524E-014 1024 447.999)" r="159.999"/>
   <circle id="_490150616" class="fil1" transform="matrix(3.17524E-014 1.20001 -1.20001 3.17524E-014 1024 1600)" r="159.999"/>
   <circle id="_490150040" class="fil2" cx="1024" cy="1024" r="192"/>
   <path id="_287145848" class="fil3" d="M1024 255.999c-106.039,0 -192,85.9607 -192,192 0,30.9414 7.3193,60.1737 20.3209,86.0599 10.2189,20.3457 23.948,38.6244 40.3937,54.0414 26.6339,24.9685 60.3898,42.4288 97.8934,49.0052 10.8449,1.90158 22.0028,2.8937 33.3922,2.8937l0 -58.0311 0 -325.969z"/>
   <path id="_355508216" class="fil4" d="M1024 832c-106.039,0 -192,85.9607 -192,192 0,30.9414 7.3193,60.1737 20.3209,86.0599 10.2189,20.3457 23.948,38.6244 40.3937,54.0414 26.6339,24.9685 60.3898,42.4288 97.8934,49.0052 10.8449,1.90158 22.0028,2.8937 33.3922,2.8937l0 -58.0311 0 -325.969z"/>
   <path id="_355508000" class="fil3" d="M448 832c-106.039,0 -192,85.9607 -192,192 0,30.9414 7.3193,60.1737 20.3209,86.0599 10.2189,20.3457 23.948,38.6244 40.3937,54.0414 26.6339,24.9685 60.3898,42.4288 97.8934,49.0052 10.8449,1.90158 22.0028,2.8937 33.3922,2.8937l0 -58.0311 0 -325.969z"/>
   <path id="_355507664" class="fil3" d="M1600 832c-106.039,0 -192,85.9607 -192,192 0,30.9414 7.3193,60.1737 20.3209,86.0599 10.2189,20.3457 23.948,38.6244 40.3937,54.0414 26.6339,24.9685 60.3898,42.4288 97.8934,49.0052 10.8449,1.90158 22.0028,2.8937 33.3922,2.8937l0 -58.0311 0 -325.969z"/>
   <path id="_355507472" class="fil3" d="M1024 1408c-106.039,0 -192,85.9607 -192,192 0,30.9414 7.3193,60.1737 20.3209,86.0599 10.2189,20.3457 23.948,38.6244 40.3937,54.0414 26.6339,24.9685 60.3898,42.4288 97.8934,49.0052 10.8449,1.90158 22.0028,2.8937 33.3922,2.8937l0 -58.0311 0 -325.969z"/>
  </g>
 </g>
 <rect class="fil5" width="2048" height="2048"/>
</svg>
