<?xml version="1.0" encoding="utf-8"?>
<!-- Generator: Adobe Illustrator 24.3.0, SVG Export Plug-In . SVG Version: 6.00 Build 0)  -->
<svg version="1.1" id="Layer_1" xmlns="http://www.w3.org/2000/svg" xmlns:xlink="http://www.w3.org/1999/xlink" x="0px" y="0px"
	 viewBox="0 0 150 150" enable-background="new 0 0 150 150" xml:space="preserve">
<g>
	<polygon fill="#EA6A78" points="110.188,53.224 39.812,53.224 39.812,74.929 45.073,74.929 45.073,112.747 104.925,112.747 
		104.925,74.929 110.188,74.929 	"/>
	<rect x="39.812" y="66.52" fill="#D94C52" width="70.375" height="8.409"/>
	<rect x="45.073" y="74.929" fill="#D94C52" width="29.927" height="37.818"/>
	<rect x="39.812" y="53.224" fill="#D94C52" width="35.187" height="21.705"/>
	<rect x="67.434" y="52.236" fill="#FFCF00" width="10.853" height="60.511"/>
	<g>
		<g>
			<path fill="#FFCF00" d="M75.758,50.802c-0.681-3.003-0.778-6.182-1.925-9.067c-1.366-3.434-4.249-5.176-7.829-5.668
				c-2.651-0.365-5.528-0.218-8.115,0.464c-2.398,0.632-5.056,1.791-6.608,3.818c-1.246,1.627-1.616,3.637-0.935,5.589
				c0.779,2.234,2.337,3.781,4.431,4.785c4.394,2.105,9.675,1.712,14.409,1.705c1.235-0.002,3.031-0.475,3.859-1.457
				c0.87-1.032-0.768-1.227-1.443-1.226c-0.812,0.001-1.623,0.014-2.435,0.018c-0.377,0.002-0.753,0.002-1.13,0
				c-0.234-0.002-0.467-0.004-0.701-0.008c0.44,0.007-0.48-0.016-0.562-0.019c-1.849-0.076-3.667-0.238-5.361-0.732
				c-1.618-0.472-3.27-1.256-4.277-2.667c-1.053-1.476-1.724-3.486-1.065-5.251c0.244-0.652,0.613-1.172,1.128-1.652
				c-0.213,0.199,0.947-0.626,0.449-0.343c0.13-0.074,0.264-0.139,0.395-0.211c0.285-0.137,0.272-0.132-0.038,0.014
				c0.144-0.059,0.289-0.114,0.436-0.165c-0.73,0.277,0.014,0.013,0.153-0.027c-0.732,0.208,0.045,0.002,0.179-0.025
				c0.774-0.156-0.524,0.003,0.275-0.034c0.17-0.008,0.339-0.016,0.509-0.022c1.161-0.04,1.791-0.046,2.995,0.136
				c0.397,0.06,1.28,0.301,1.882,0.555c0.504,0.213,1.07,0.568,1.572,0.998c0.97,0.832,1.601,1.876,2.062,3.058
				c1.118,2.866,1.219,6.013,1.895,8.99C70.309,53.881,76.129,52.438,75.758,50.802L75.758,50.802z"/>
		</g>
	</g>
	<g>
		<g>
			<path fill="#FFCF00" d="M75.733,51.122c0.605-2.663,0.764-5.426,1.569-8.044c0.374-1.217,0.85-2.289,1.549-3.118
				c0.209-0.248,0.434-0.485,0.676-0.7c-0.357,0.317,0.296-0.191,0.401-0.272c0.45-0.348-0.327,0.391,0.061-0.03
				c0.103-0.112,0.761-0.307,0-0.019c0.047-0.018,0.536-0.179,0.54-0.206c-0.445,0.14-0.506,0.162-0.182,0.067
				c0.067-0.018,0.134-0.036,0.201-0.053c0.697-0.206-0.677,0.086,0.07-0.014c0.23-0.031,0.457-0.072,0.687-0.1
				c-0.644,0.08,0.186-0.006,0.263-0.01c0.264-0.014,0.528-0.022,0.792-0.025c-0.009,0,0.441-0.005,0.207-0.006
				c0.11,0,1.342,0.05,0.803,0.022c0.467,0.025,1.111,0.086,1.461,0.158c1.592,0.329,3.171,1.117,4.18,2.424
				c0.981,1.271,1.109,2.942,0.593,4.423c-0.309,0.888-0.773,1.771-1.437,2.445c-0.146,0.148-0.42,0.361-0.778,0.608
				c0.436-0.301-0.158,0.087-0.217,0.118c-0.222,0.117-0.595,0.268-0.15,0.087c-0.212,0.086-0.427,0.165-0.641,0.248
				c-0.324,0.111-0.292,0.101,0.096-0.029c-0.151,0.045-0.302,0.088-0.454,0.128c-0.23,0.062-0.462,0.117-0.695,0.169
				c0.728-0.164-0.001-0.01-0.167,0.019c-0.24,0.041-0.481,0.079-0.723,0.112c-0.108,0.015-1.125,0.125-0.496,0.067
				c-0.488,0.045-0.976,0.08-1.465,0.106c-1.981,0.104-3.962,0.05-5.944,0.047c-1.234-0.002-3.033,0.476-3.859,1.457
				c-0.871,1.034,0.769,1.225,1.443,1.226c4.718,0.007,9.393,0.047,13.933-1.447c2.242-0.738,4.717-1.962,6.074-3.973
				c1.22-1.808,2.102-4.077,1.293-6.242c-0.721-1.929-2.451-3.199-4.296-3.952c-2.412-0.985-4.956-1.03-7.392-0.859
				c-4.364,0.307-9.095,1.846-11.303,5.907c-1.68,3.09-1.678,6.813-2.441,10.175C69.622,53.645,75.362,52.754,75.733,51.122
				L75.733,51.122z"/>
		</g>
	</g>
</g>
</svg>
