<?xml version="1.0" encoding="UTF-8"?>
<!DOCTYPE svg PUBLIC "-//W3C//DTD SVG 1.1//EN" "http://www.w3.org/Graphics/SVG/1.1/DTD/svg11.dtd">
<!-- Creator: CorelDRAW -->
<svg xmlns="http://www.w3.org/2000/svg" xml:space="preserve" width="2048px" height="2048px" style="shape-rendering:geometricPrecision; text-rendering:geometricPrecision; image-rendering:optimizeQuality; fill-rule:evenodd; clip-rule:evenodd"
viewBox="0 0 2048 2048"
 xmlns:xlink="http://www.w3.org/1999/xlink">
 <defs>
  <style type="text/css">
   <![CDATA[
    .fil2 {fill:none}
    .fil1 {fill:#689F38}
    .fil0 {fill:#9CCC65}
    .fil4 {fill:#EF5350}
    .fil3 {fill:#D32F2F;fill-rule:nonzero}
   ]]>
  </style>
 </defs>
 <g id="Layer_x0020_1">
  <metadata id="CorelCorpID_0Corel-Layer"/>
  <polygon class="fil0" points="447.997,255.999 1600,255.999 1600,1792 447.997,1792 "/>
  <polygon class="fil1" points="623.999,1504 1424,1504 1424,1568 623.999,1568 "/>
  <polygon class="fil1" points="623.999,1280 1424,1280 1424,1344 623.999,1344 "/>
  <polygon class="fil1" points="623.999,479.998 1424,479.998 1424,544 623.999,544 "/>
  <g id="_276864224">
   <rect id="_276862688" class="fil2" width="2048" height="2048"/>
   <rect id="_276864824" class="fil2" x="255.999" y="255.999" width="1536" height="1536"/>
  </g>
  <g id="_276861488">
   <polygon id="_276857864" class="fil3" points="760,882.187 1069.28,1060.75 1053.28,1088.37 744.001,909.811 "/>
   <circle id="_276865256" class="fil4" cx="752" cy="895.999" r="96.0001"/>
   <polygon id="_276861272" class="fil3" points="1269.97,778.55 1062.91,1069.53 1088.94,1088 1296,797.023 "/>
   <circle id="_276865112" class="fil4" cx="1296" cy="767.999" r="96.0001"/>
   <circle id="_276860408" class="fil4" cx="1072" cy="1056" r="96.0001"/>
  </g>
 </g>
</svg>
