<?xml version="1.0" standalone="no"?>
<!DOCTYPE svg PUBLIC "-//W3C//DTD SVG 20010904//EN"
 "http://www.w3.org/TR/2001/REC-SVG-20010904/DTD/svg10.dtd">
<svg version="1.0" xmlns="http://www.w3.org/2000/svg"
 width="444.000000pt" height="222.000000pt" viewBox="0 0 444.000000 222.000000"
 preserveAspectRatio="xMidYMid meet">

<g transform="translate(0.000000,222.000000) scale(0.100000,-0.100000)"
fill="#000000" stroke="none">
<path d="M0 1110 l0 -1110 2220 0 2220 0 0 1110 0 1110 -2220 0 -2220 0 0
-1110z m1296 697 c2 -2 -35 -38 -83 -80 l-88 -77 -78 0 c-149 0 -314 -57 -436
-150 l-54 -42 -91 7 c-50 4 -99 10 -109 14 -13 5 30 48 197 197 l213 190 263
-27 c144 -15 264 -29 266 -32z m-176 -202 c0 -8 40 -197 46 -217 5 -16 -3 -18
-78 -18 -145 0 -288 -49 -405 -139 -29 -22 -54 -37 -56 -33 -2 4 -14 55 -27
114 -27 124 -30 117 69 181 121 80 234 115 374 116 42 1 77 -1 77 -4z m-710
-222 c0 -58 4 -81 17 -95 14 -16 15 -23 5 -39 -8 -12 -9 -26 -4 -37 5 -9 12
-46 16 -82 4 -36 9 -78 12 -95 5 -29 4 -30 -31 -31 l-37 -1 3 119 c2 65 1 118
-3 118 -12 0 -9 38 3 46 8 5 10 34 6 90 -2 46 -1 84 4 84 5 0 9 -35 9 -77z
m2188 -19 c34 -5 52 -11 52 -20 0 -11 -23 -14 -105 -14 -85 0 -105 3 -105 14
0 10 13 16 38 19 20 2 44 4 52 5 8 1 39 -1 68 -4z m-1398 -51 c76 -20 200 -96
200 -122 0 -5 -27 -32 -60 -60 l-60 -53 -40 32 c-114 90 -287 77 -382 -28
-117 -130 -69 -362 89 -428 95 -40 216 -23 291 41 l42 36 60 -57 61 -58 -33
-33 c-41 -43 -136 -90 -207 -103 -227 -42 -436 52 -524 238 -30 63 -32 73 -32
182 0 108 2 119 32 182 97 205 321 297 563 231z m765 5 c120 -30 236 -121 288
-227 31 -63 32 -70 32 -186 0 -115 -1 -123 -32 -186 -59 -119 -165 -203 -294
-234 -232 -54 -459 44 -550 239 -57 121 -49 278 18 394 100 171 324 254 538
200z m702 -12 c2 -2 -3 -59 -11 -126 -9 -67 -16 -148 -16 -181 0 -64 -12 -75
-45 -39 -11 13 -31 20 -53 20 -56 0 -91 27 -96 74 -3 23 -11 87 -18 144 l-14
103 26 5 c14 3 30 8 35 10 13 5 186 -3 192 -10z m285 3 c105 -23 200 -93 233
-173 52 -127 6 -290 -100 -354 -24 -15 -45 -30 -45 -34 0 -5 37 -61 83 -125
46 -65 87 -124 91 -130 6 -10 -16 -13 -97 -13 l-104 0 -83 120 -83 120 -88 0
-89 0 0 29 c0 15 -3 49 -6 74 l-6 45 129 3 c103 3 134 8 156 22 92 60 88 200
-7 247 -35 16 -62 20 -149 20 -122 0 -114 -7 -95 96 l11 64 98 0 c54 0 122 -5
151 -11z m948 -64 l0 -75 -220 0 -220 0 0 -95 0 -95 195 0 195 0 0 -75 0 -75
-195 0 -195 0 0 -95 0 -95 230 0 230 0 0 -80 0 -80 -325 0 -325 0 0 420 0 420
315 0 315 0 0 -75z m-1482 -245 c61 -34 69 -44 54 -67 -5 -8 -24 -7 -75 4 -65
15 -67 16 -52 33 13 14 14 23 6 39 -22 40 -21 40 67 -9z m156 -59 c33 -37 3
-80 -47 -67 -47 11 -31 84 19 86 6 0 19 -9 28 -19z m-95 -59 c8 -15 2 -25 -35
-56 l-44 -37 0 29 c0 24 -5 31 -27 37 -26 8 -25 9 27 26 69 22 67 22 79 1z
m164 -101 c4 -59 11 -141 18 -180 6 -40 8 -76 4 -79 -9 -10 -179 -15 -219 -8
l-33 6 8 45 c5 25 13 86 18 136 8 87 10 93 42 118 21 16 43 24 61 22 19 -2 34
5 50 22 39 43 45 34 51 -82z m7 -298 c0 -18 -35 -24 -125 -21 -61 2 -80 6 -83
18 -2 13 15 15 103 15 76 0 105 -3 105 -12z m-2003 -150 c-20 -3 -27 -9 -23
-19 3 -8 1 -24 -4 -36 -7 -19 -9 -16 -9 20 -1 41 0 42 32 41 31 -2 31 -2 4 -6z
m93 -43 l-8 -35 -1 45 c-1 27 3 40 8 35 6 -6 6 -25 1 -45z m79 8 c-2 -31 -3
-35 -6 -15 -3 15 -9 25 -15 21 -6 -4 -6 2 1 15 17 31 21 26 20 -21z m131 27
c15 -19 -2 -45 -30 -45 -10 0 -21 -6 -23 -12 -3 -7 -6 6 -6 30 -1 38 1 42 23
42 13 0 29 -7 36 -15z m140 -4 c15 -29 13 -39 -14 -56 -31 -21 -66 -5 -66 28
0 46 59 66 80 28z m166 -13 c19 44 26 41 10 -5 -16 -47 -32 -52 -41 -13 -4 16
-11 28 -16 24 -11 -6 -12 9 -2 20 5 4 14 -7 22 -26 l14 -33 13 33z m112 25
c-23 -4 -27 -10 -31 -41 l-4 -37 -1 43 c-2 41 -2 42 31 41 29 -2 29 -2 5 -6z
m146 -9 c4 -9 1 -23 -5 -30 -6 -7 -8 -18 -4 -24 4 -7 -2 -6 -14 2 -18 11 -23
11 -31 -2 -7 -11 -10 -3 -10 28 0 40 2 42 29 42 17 0 31 -6 35 -16z m63 -46
c-2 -13 -4 -3 -4 22 0 25 2 35 4 23 2 -13 2 -33 0 -45z m136 32 c4 33 4 33 5
-7 1 -24 0 -43 -2 -43 -10 0 -66 63 -66 73 0 7 14 -4 29 -23 l29 -35 5 35z
m105 23 c-32 -5 -45 -36 -27 -61 12 -16 12 -16 -6 0 -16 15 -17 21 -7 43 9 19
19 25 39 24 l28 -2 -27 -4z m200 0 c-34 -5 -38 -32 -5 -34 l22 -2 -22 -4 c-12
-2 -24 -12 -26 -21 -3 -9 -5 2 -6 26 -1 41 0 42 32 41 30 -2 30 -2 5 -6z m89
-55 c-2 -13 -4 -3 -4 22 0 25 2 35 4 23 2 -13 2 -33 0 -45z m126 35 c3 25 4
22 5 -13 l1 -45 -29 32 -29 32 -4 -32 c-3 -25 -4 -22 -5 13 l-1 45 29 -32 29
-32 4 32z m128 -15 c17 -33 18 -40 5 -29 -9 7 -27 11 -41 9 -14 -3 -25 -3 -25
-1 0 8 31 63 35 63 3 0 14 -19 26 -42z m136 -34 c-2 -3 -14 6 -25 20 -25 33
-30 32 -35 -1 -3 -18 -4 -12 -5 17 l-2 45 36 -38 c20 -21 34 -40 31 -43z m108
67 c-39 -8 -46 -42 -13 -65 25 -18 17 -22 -13 -6 -21 12 -25 50 -7 68 7 7 23
11 38 11 23 -1 23 -2 -5 -8z m92 -53 c-2 -13 -4 -3 -4 22 0 25 2 35 4 23 2
-13 2 -33 0 -45z m124 20 c17 -33 18 -40 5 -29 -9 7 -27 11 -41 9 -14 -3 -25
-3 -25 -1 0 8 31 63 35 63 3 0 14 -19 26 -42z m76 -20 c-2 -13 -4 -3 -4 22 0
25 2 35 4 23 2 -13 2 -33 0 -45z m235 31 c11 17 22 31 24 31 2 0 3 -19 3 -42
-1 -39 -2 -40 -8 -13 l-7 30 -13 -24 -14 -25 -18 22 -18 23 -4 -28 c-3 -19 -4
-13 -5 17 l-2 45 22 -33 21 -34 19 31z m149 -11 c17 -33 18 -40 5 -29 -9 7
-27 11 -41 9 -14 -3 -25 -3 -25 -1 0 8 31 63 35 63 3 0 14 -19 26 -42z m227
35 c-13 -3 -19 -16 -20 -41 l-1 -37 -4 37 c-3 24 -10 38 -21 41 -9 3 1 5 23 5
22 0 32 -2 23 -5z m100 0 c-23 -4 -26 -8 -24 -39 2 -19 -1 -34 -5 -34 -5 0 -9
18 -9 40 0 39 1 40 33 39 28 -2 29 -2 5 -6z m149 -9 c3 -8 1 -20 -5 -26 -6 -6
-9 -16 -8 -22 2 -6 1 -8 -1 -3 -7 12 -41 8 -46 -5 -3 -7 -6 6 -6 30 -1 40 0
42 29 42 19 0 33 -6 37 -16z m106 -2 l19 23 -16 -27 c-9 -15 -16 -35 -16 -45
0 -9 -9 0 -20 22 -24 47 -25 59 -3 27 l17 -24 19 24z m-458 -34 c5 -5 4 -13
-4 -20 -10 -11 -11 -10 -6 5 5 11 2 17 -7 17 -8 0 -23 7 -34 15 -17 14 -17 14
11 3 17 -6 34 -15 40 -20z m-2620 0 c5 4 5 1 1 -6 -6 -10 -11 -10 -22 -1 -8 6
-14 17 -14 23 0 6 7 3 14 -6 7 -10 17 -14 21 -10z m406 3 c5 8 9 10 9 4 0 -5
-5 -17 -10 -25 -9 -13 -11 -13 -20 0 -5 8 -10 22 -10 30 1 11 3 10 11 -4 9
-15 13 -16 20 -5z m647 -32 c-7 -5 -17 -9 -23 -9 -5 1 -2 5 8 11 9 5 18 18 18
27 1 14 2 14 6 -2 3 -10 -1 -22 -9 -27z m1532 1 c8 -5 11 -10 5 -10 -5 0 -17
5 -25 10 -8 5 -10 10 -5 10 6 0 17 -5 25 -10z"/>
<path d="M1735 1154 c-101 -36 -165 -131 -165 -244 0 -120 46 -202 143 -252
60 -32 174 -31 239 1 99 48 157 157 144 273 -7 75 -34 126 -91 176 -68 60
-178 79 -270 46z"/>
<path d="M900 309 c0 -14 5 -19 17 -17 26 5 29 38 4 38 -15 0 -21 -6 -21 -21z"/>
<path d="M1027 323 c-12 -11 -8 -40 7 -52 26 -22 63 10 50 44 -6 15 -45 21
-57 8z"/>
<path d="M1460 310 c0 -21 8 -24 34 -14 20 8 9 34 -15 34 -12 0 -19 -7 -19
-20z"/>
<path d="M2326 313 c-11 -11 -6 -23 9 -23 8 0 15 4 15 9 0 13 -16 22 -24 14z"/>
<path d="M2786 313 c-11 -11 -6 -23 9 -23 8 0 15 4 15 9 0 13 -16 22 -24 14z"/>
<path d="M3246 313 c-11 -11 -6 -23 9 -23 8 0 15 4 15 9 0 13 -16 22 -24 14z"/>
<path d="M3700 310 c0 -16 5 -21 23 -18 12 2 22 10 22 18 0 8 -10 16 -22 18
-18 3 -23 -2 -23 -18z"/>
</g>
</svg>
