<?xml version="1.0" encoding="UTF-8"?>
<svg version="1.1" xmlns="http://www.w3.org/2000/svg" width="896" height="261">
<path d="M0 0 C295.68 0 591.36 0 896 0 C896 86.13 896 172.26 896 261 C600.32 261 304.64 261 0 261 C0 174.87 0 88.74 0 0 Z " fill="#010101" transform="translate(0,0)"/>
<path d="M0 0 C20.13 0 40.26 0 61 0 C61 6.27 61 12.54 61 19 C47.47 19 33.94 19 20 19 C20 23.62 20 28.24 20 33 C33.86 33 47.72 33 62 33 C62 22.11 62 11.22 62 0 C68.93 0 75.86 0 83 0 C87.91799079 9.68562263 92.53496109 19.44635102 96.9375 29.375 C97.53161198 30.70846216 98.12601197 32.04179604 98.72070312 33.375 C100.15043677 36.58187113 101.57634178 39.79042628 103 43 C106.24786707 39.2154682 107.99812686 34.8543431 109.9765625 30.33203125 C110.34727875 29.49661301 110.717995 28.66119476 111.09994507 27.80046082 C112.27978296 25.13990942 113.4527889 22.47641944 114.625 19.8125 C115.80531746 17.13831326 116.98708425 14.46478798 118.17147827 11.79240417 C118.9074991 10.13088553 119.64098442 8.46824103 120.37173462 6.80439758 C122.8884902 1.1115098 122.8884902 1.1115098 124 0 C131.26 0 138.52 0 146 0 C146 28.71 146 57.42 146 87 C139.07 87 132.14 87 125 87 C124.67 70.5 124.34 54 124 37 C119.05 48.88 114.1 60.76 109 73 C105.7 73 102.4 73 99 73 C97.83046183 70.68891792 96.66443101 68.3761549 95.5 66.0625 C95.18546875 65.44181641 94.8709375 64.82113281 94.546875 64.18164062 C90.53309233 56.19266935 86.81143952 48.09930899 83 40 C82.67 55.51 82.34 71.02 82 87 C54.94 87 27.88 87 0 87 C0 58.29 0 29.58 0 0 Z " fill="#F8F8F8" transform="translate(124,115)"/>
<path d="M0 0 C20.13 0 40.26 0 61 0 C61 6.27 61 12.54 61 19 C47.47 19 33.94 19 20 19 C20 23.95 20 28.9 20 34 C33.53 34 47.06 34 61 34 C61 39.94 61 45.88 61 52 C47.47 52 33.94 52 20 52 C20 57.61 20 63.22 20 69 C33.53 69 47.06 69 61 69 C61 74.94 61 80.88 61 87 C40.87 87 20.74 87 0 87 C0 58.29 0 29.58 0 0 Z " fill="#FDFDFD" transform="translate(124,115)"/>
<path d="M0 0 C6.6 0 13.2 0 20 0 C20 23.1 20 46.2 20 70 C33.86 70 47.72 70 62 70 C62 75.61 62 81.22 62 87 C41.54 87 21.08 87 0 87 C0 58.29 0 29.58 0 0 Z " fill="#FAFAFA" transform="translate(61,115)"/>
<path d="M0 0 C3.26727806 1.41087007 4.72235194 2.61703716 6.8125 5.5 C9.06942435 8.07934212 9.88774235 8.48750953 13 9.5 C16.94254982 10.78481605 18.72446087 12.45015896 21 16 C22.62841701 19.25683403 22.26795577 22.79958335 22.3125 26.375 C22.34150391 27.14328125 22.37050781 27.9115625 22.40039062 28.703125 C22.4425645 32.45335577 22.42126714 34.39553281 20.23046875 37.5390625 C18 39 18 39 14 39 C13.7525 39.928125 13.505 40.85625 13.25 41.8125 C11.86409008 45.34657028 11.37220258 46.35713207 8 48 C4.98723537 48.5307461 2.0600208 48.77499847 -1 49 C-1.99 51.64 -2.98 54.28 -4 57 C-5.32 57 -6.64 57 -8 57 C-7.505 52.05 -7.505 52.05 -7 47 C-8.32 46.34 -9.64 45.68 -11 45 C-11.66 44.01 -12.32 43.02 -13 42 C-14.093125 42 -15.18625 42 -16.3125 42 C-20.34132429 42 -21.82469752 41.35879613 -25 39 C-25.66 38.34 -26.32 37.68 -27 37 C-28.093125 36.731875 -29.18625 36.46375 -30.3125 36.1875 C-34.46419325 34.85051404 -36.20636101 33.28663411 -39 30 C-40.60996355 26.7800729 -40.60579052 23.48163124 -40 20 C-37.6875 17 -37.6875 17 -35 15 C-34.01 15 -33.02 15 -32 15 C-31.938125 13.96875 -31.87625 12.9375 -31.8125 11.875 C-30.80509918 7.07047303 -29.38220746 5.46470032 -26 2 C-22.14656861 0.0732843 -17.30312457 0.71041676 -13.1875 1.625 C-9.15677273 2.31598182 -4.89265095 -0.61397973 0 0 Z " fill="#79D441" transform="translate(310,57)"/>
<path d="M0 0 C2.31279611 1.15639806 4.17409828 2.17409828 6 4 C6.33 2.68 6.66 1.36 7 0 C8.98 0 10.96 0 13 0 C13.09938095 4.16253275 13.17170617 8.32442479 13.21972656 12.48779297 C13.23975843 13.90197795 13.26699248 15.31608097 13.30175781 16.72998047 C13.35065489 18.77071419 13.37305123 20.8103469 13.390625 22.8515625 C13.41157227 24.07697754 13.43251953 25.30239258 13.45410156 26.56494141 C12.91059581 30.67629943 11.57063583 32.78582365 9 36 C4.51152519 39.28424986 0.11061462 39.55569649 -5.296875 39.4375 C-9.56767994 38.74627145 -11.80184843 36.8428014 -15 34 C-14.01 32.68 -13.02 31.36 -12 30 C-10 31 -8 32 -6 33 C-0.98878616 33.48725249 -0.98878616 33.48725249 3.375 31.3125 C5.13434402 28.80881813 5.66466723 27.01799494 6 24 C5.34 24 4.68 24 4 24 C4 24.66 4 25.32 4 26 C-0.33782222 28.23463569 -3.29003174 28.17749207 -8 27 C-11.91614547 24.56328726 -13.90096703 22.49604398 -15 18 C-15.57566421 13.21755886 -15.49753584 9.95953341 -13.25 5.625 C-8.99865067 0.66509245 -6.7342227 -0.70886555 0 0 Z " fill="#F2F2F2" transform="translate(551,135)"/>
<path d="M0 0 C2.64 0 5.28 0 8 0 C9.50626117 3.12202006 11.00393243 6.24808399 12.5 9.375 C12.92925781 10.26445312 13.35851562 11.15390625 13.80078125 12.0703125 C14.20683594 12.92109375 14.61289062 13.771875 15.03125 14.6484375 C15.40830078 15.43395996 15.78535156 16.21948242 16.17382812 17.02880859 C17 19 17 19 17 21 C17.66 21 18.32 21 19 21 C19.08121094 20.34644531 19.16242187 19.69289062 19.24609375 19.01953125 C20.26980093 14.91939836 22.12738986 11.42737607 24.0625 7.6875 C24.43955078 6.94693359 24.81660156 6.20636719 25.20507812 5.44335938 C26.13128157 3.62612478 27.06490629 1.81267596 28 0 C30.64 0 33.28 0 36 0 C36 12.54 36 25.08 36 38 C33.69 38 31.38 38 29 38 C28.67 30.74 28.34 23.48 28 16 C25.36 21.28 22.72 26.56 20 32 C18.35 32 16.7 32 15 32 C14.74605469 31.34773438 14.49210938 30.69546875 14.23046875 30.0234375 C13.88628906 29.14945313 13.54210937 28.27546875 13.1875 27.375 C12.85105469 26.51648438 12.51460937 25.65796875 12.16796875 24.7734375 C10.91136301 21.7895242 9.44795004 18.89590008 8 16 C7.67 23.26 7.34 30.52 7 38 C4.69 38 2.38 38 0 38 C0 25.46 0 12.92 0 0 Z " fill="#F8F8F8" transform="translate(659,125)"/>
<path d="M0 0 C13.86 0 27.72 0 42 0 C42 5.28 42 10.56 42 16 C28.14 16 14.28 16 0 16 C0 10.72 0 5.44 0 0 Z " fill="#030303" transform="translate(144,167)"/>
<path d="M0 0 C8.25 0 16.5 0 25 0 C25 1.98 25 3.96 25 6 C19.06 6 13.12 6 7 6 C7 9.3 7 12.6 7 16 C12.28 16 17.56 16 23 16 C23 17.98 23 19.96 23 22 C18.05 22 13.1 22 8 22 C8 24.97 8 27.94 8 31 C13.94 31 19.88 31 26 31 C26 33.31 26 35.62 26 38 C17.42 38 8.84 38 0 38 C0 25.46 0 12.92 0 0 Z " fill="#EEEEEE" transform="translate(475,125)"/>
<path d="M0 0 C13.86 0 27.72 0 42 0 C42 4.62 42 9.24 42 14 C28.14 14 14.28 14 0 14 C0 9.38 0 4.76 0 0 Z " fill="#000000" transform="translate(144,134)"/>
<path d="M0 0 C3.83019557 1.98602733 7.04532347 4.09064695 9 8 C9 10.64 9 13.28 9 16 C2.4 16 -4.2 16 -11 16 C-10.34 17.65 -9.68 19.3 -9 21 C-3.71800407 22.19988045 -3.71800407 22.19988045 1 20 C4.1875 19.875 4.1875 19.875 7 20 C7 20.99 7 21.98 7 23 C2.140851 27.34765963 -0.96610451 28.46981313 -7.38671875 28.4140625 C-11.76320474 27.72062825 -14.25947239 25.3557481 -17 22 C-19.31772086 18.06995159 -19.47452968 14.50803192 -19 10 C-14.90852623 1.97441684 -8.84633233 -1.58536422 0 0 Z " fill="#F5F5F5" transform="translate(379,135)"/>
<path d="M0 0 C2.80912991 1.91843018 3.3974221 2.63445686 4.5625 5.75 C4.8272853 8.13852724 5.00809352 10.53718617 5.125 12.9375 C4.95874914 17.16406117 4.95874914 17.16406117 6.5625 20.75 C6.60330783 22.74958364 6.60504356 24.75045254 6.5625 26.75 C4.5825 26.75 2.6025 26.75 0.5625 26.75 C0.2325 25.43 -0.0975 24.11 -0.4375 22.75 C-1.2625 23.41 -2.0875 24.07 -2.9375 24.75 C-6.9156731 27.38330607 -9.73151891 27.3475849 -14.4375 26.75 C-18.27342455 24.7096146 -19.20824547 23.45049994 -20.5625 19.3125 C-20.4375 15.75 -20.4375 15.75 -18.0625 12.875 C-17.19625 12.17375 -16.33 11.4725 -15.4375 10.75 C-15.1075 10.42 -14.7775 10.09 -14.4375 9.75 C-12.41785801 9.67755947 -10.39582876 9.66622812 -8.375 9.6875 C-6.71791016 9.70103516 -6.71791016 9.70103516 -5.02734375 9.71484375 C-4.17269531 9.72644531 -3.31804687 9.73804688 -2.4375 9.75 C-2.78536708 7.77463255 -2.78536708 7.77463255 -3.4375 5.75 C-7.71749354 3.61000323 -12.92798355 4.65678389 -17.4375 5.75 C-17.7675 4.43 -18.0975 3.11 -18.4375 1.75 C-12.26437207 -2.04884796 -6.73684182 -2.44976066 0 0 Z " fill="#F1F1F1" transform="translate(411.4375,136.25)"/>
<path d="M0 0 C2.31 0 4.62 0 7 0 C7.33 4.29 7.66 8.58 8 13 C9.32 12.01 10.64 11.02 12 10 C16.24649943 9.45953644 18.25823192 9.51623821 21.875 11.875 C24.15806998 14.15806998 24.95184891 15.04712626 25.11352539 18.24658203 C25.10828857 19.15778809 25.10305176 20.06899414 25.09765625 21.0078125 C25.09443359 21.99394531 25.09121094 22.98007813 25.08789062 23.99609375 C25.07951172 25.02863281 25.07113281 26.06117188 25.0625 27.125 C25.05798828 28.16527344 25.05347656 29.20554688 25.04882812 30.27734375 C25.03701952 32.85161962 25.02055075 35.42578146 25 38 C22.69 38 20.38 38 18 38 C17.98018066 37.43490723 17.96036133 36.86981445 17.93994141 36.28759766 C17.84481764 33.73292003 17.73508942 31.17907459 17.625 28.625 C17.5940625 27.73554688 17.563125 26.84609375 17.53125 25.9296875 C17.49257813 25.07890625 17.45390625 24.228125 17.4140625 23.3515625 C17.36693115 22.17327881 17.36693115 22.17327881 17.31884766 20.97119141 C17.1600535 18.76997061 17.1600535 18.76997061 15 17 C11.70285207 17.32971479 10.3773161 17.6226839 8 20 C7.63168919 21.93257855 7.63168919 21.93257855 7.5859375 24.1328125 C7.54726563 24.93847656 7.50859375 25.74414062 7.46875 26.57421875 C7.4378125 27.41597656 7.406875 28.25773437 7.375 29.125 C7.33632813 29.97449219 7.29765625 30.82398438 7.2578125 31.69921875 C7.16343506 33.79911684 7.08062414 35.89952891 7 38 C4.69 38 2.38 38 0 38 C0 25.46 0 12.92 0 0 Z " fill="#F0F0F0" transform="translate(627,125)"/>
<path d="M0 0 C3.8026029 2.0050088 5.61790841 3.42686262 8 7 C8.31884766 9.26831055 8.31884766 9.26831055 8.4140625 11.88671875 C8.45273437 12.82451172 8.49140625 13.76230469 8.53125 14.72851562 C8.5621875 15.70498047 8.593125 16.68144531 8.625 17.6875 C8.66367187 18.67556641 8.70234375 19.66363281 8.7421875 20.68164062 C8.83645867 23.12090707 8.92206218 25.56016595 9 28 C4.2265625 28.1875 4.2265625 28.1875 2.1875 26.5 C1.795625 26.005 1.40375 25.51 1 25 C0.13375 25.495 -0.7325 25.99 -1.625 26.5 C-5.22100908 28.09822626 -7.12882641 28.57655777 -11 28 C-14.74093467 25.92170296 -15.79149259 24.67458281 -17.0625 20.5625 C-16.98713481 16.26668421 -16.03450339 14.94780329 -13 12 C-10.51245214 10.75622607 -8.77344699 10.86693765 -6 10.875 C-5.113125 10.87242187 -4.22625 10.86984375 -3.3125 10.8671875 C-1 11 -1 11 1 12 C0.67 10.02 0.34 8.04 0 6 C-7.05651252 5.85024761 -7.05651252 5.85024761 -14 7 C-14.33 5.68 -14.66 4.36 -15 3 C-10.0102594 -0.0706096 -5.73175271 -0.9433296 0 0 Z " fill="#F1F1F1" transform="translate(717,135)"/>
<path d="M0 0 C2.31 0 4.62 0 7 0 C7.33 4.62 7.66 9.24 8 14 C9.32 13.01 10.64 12.02 12 11 C14.21875 10.49609375 14.21875 10.49609375 16.5 10.4375 C17.2528125 10.39496094 18.005625 10.35242188 18.78125 10.30859375 C21.55177833 11.17194501 22.77241057 12.53087588 24.25 15.0012207 C25.80504367 19.14547283 25.40362609 23.51438262 25.25 27.875 C25.23195313 28.84953125 25.21390625 29.8240625 25.1953125 30.828125 C25.14841734 33.21977807 25.08280907 35.60936597 25 38 C22.69 38 20.38 38 18 38 C17.97494385 37.42967041 17.9498877 36.85934082 17.92407227 36.27172852 C17.80843451 33.70173843 17.68556376 31.13214473 17.5625 28.5625 C17.52318359 27.66466797 17.48386719 26.76683594 17.44335938 25.84179688 C17.40146484 24.98779297 17.35957031 24.13378906 17.31640625 23.25390625 C17.27974854 22.46314697 17.24309082 21.6723877 17.20532227 20.85766602 C17.19436743 18.98598559 17.19436743 18.98598559 16 18 C12.48254713 18.25248627 12.48254713 18.25248627 9 19 C7.3501993 22.29960141 7.61741639 25.99127884 7.4375 29.625 C7.37272461 30.82769531 7.37272461 30.82769531 7.30664062 32.0546875 C7.20048543 34.0362511 7.09973145 36.01810271 7 38 C4.69 38 2.38 38 0 38 C0 25.46 0 12.92 0 0 Z " fill="#F6F6F6" transform="translate(751,125)"/>
<path d="M0 0 C2.31 0 4.62 0 7 0 C7.33 0.99 7.66 1.98 8 3 C8.680625 2.505 9.36125 2.01 10.0625 1.5 C13.72431906 -0.36986505 15.93214595 -0.50848176 20 0 C22.69921875 1.26171875 22.69921875 1.26171875 25 4 C25.63356035 8.09487813 25.46824743 12.11909901 25.3125 16.25 C25.28994141 17.37664062 25.26738281 18.50328125 25.24414062 19.6640625 C25.18524254 22.44405232 25.10304201 25.22135332 25 28 C22.69 28 20.38 28 18 28 C17.505 18.1 17.505 18.1 17 8 C12.28982784 6.4685479 12.28982784 6.4685479 9.734375 8.390625 C7.26214189 12.11011085 7.3299 15.37002724 7.25 19.75 C7.22035156 20.54277344 7.19070313 21.33554688 7.16015625 22.15234375 C7.08972213 24.10102094 7.04256518 26.05051495 7 28 C4.69 28 2.38 28 0 28 C0 18.76 0 9.52 0 0 Z " fill="#EDEDED" transform="translate(443,135)"/>
<path d="M0 0 C3.49790407 4.83015947 2.87090195 9.22790723 2.640625 15.02734375 C2.61806641 16.10177734 2.59550781 17.17621094 2.57226562 18.28320312 C2.51348098 20.92851225 2.43136457 23.57095788 2.328125 26.21484375 C0.018125 26.21484375 -2.291875 26.21484375 -4.671875 26.21484375 C-5.166875 16.31484375 -5.166875 16.31484375 -5.671875 6.21484375 C-10.27397487 4.83300095 -10.27397487 4.83300095 -12.9375 6.078125 C-15.70904257 9.4926155 -15.34915391 13.12832691 -15.421875 17.40234375 C-15.45152344 18.24732422 -15.48117187 19.09230469 -15.51171875 19.96289062 C-15.5823449 22.04636197 -15.62938295 24.13060881 -15.671875 26.21484375 C-17.981875 26.21484375 -20.291875 26.21484375 -22.671875 26.21484375 C-22.671875 17.30484375 -22.671875 8.39484375 -22.671875 -0.78515625 C-20.691875 -0.78515625 -18.711875 -0.78515625 -16.671875 -0.78515625 C-16.341875 0.20484375 -16.011875 1.19484375 -15.671875 2.21484375 C-15.259375 1.74046875 -14.846875 1.26609375 -14.421875 0.77734375 C-10.33408906 -2.87246512 -4.46164503 -2.9809529 0 0 Z " fill="#F7F7F7" transform="translate(528.671875,136.78515625)"/>
<path d="M0 0 C2.31 0 4.62 0 7 0 C7 10.56 7 21.12 7 32 C13.27 32 19.54 32 26 32 C26 33.98 26 35.96 26 38 C17.42 38 8.84 38 0 38 C0 25.46 0 12.92 0 0 Z " fill="#FAFAFA" transform="translate(333,125)"/>
<path d="M0 0 C3.0625 1.5 3.0625 1.5 5 3 C4.67 4.32 4.34 5.64 4 7 C1.37165722 7 -1.08186701 6.80210238 -3.6875 6.5 C-4.49574219 6.4071875 -5.30398438 6.314375 -6.13671875 6.21875 C-6.75160156 6.1465625 -7.36648438 6.074375 -8 6 C-7.8760595 7.97947498 -7.8760595 7.97947498 -7 10 C-4.81461725 10.99927996 -4.81461725 10.99927996 -2.1875 11.5 C4.90619688 13.41062323 4.90619688 13.41062323 7 17 C6.93808135 20.52936299 6.73563767 22.94908904 4.6875 25.875 C0.435373 28.70975134 -5.08170103 28.50966829 -10 28 C-13.5625 26.5 -13.5625 26.5 -16 25 C-15.67 23.68 -15.34 22.36 -15 21 C-11.83772601 21 -8.88359512 21.17014788 -5.75 21.5 C-4.41195312 21.63921875 -4.41195312 21.63921875 -3.046875 21.78125 C-2.37140625 21.8534375 -1.6959375 21.925625 -1 22 C-1 21.01 -1 20.02 -1 19 C-1.84304688 18.66226563 -2.68609375 18.32453125 -3.5546875 17.9765625 C-4.65039062 17.53054687 -5.74609375 17.08453125 -6.875 16.625 C-7.96554687 16.18414062 -9.05609375 15.74328125 -10.1796875 15.2890625 C-13 14 -13 14 -15 12 C-15.5 8.6875 -15.5 8.6875 -15 5 C-10.69824982 -0.18416048 -6.58676983 -1.16237115 0 0 Z " fill="#F2F2F2" transform="translate(615,135)"/>
<path d="M0 0 C3.0625 1.5 3.0625 1.5 5 3 C4.67 4.32 4.34 5.64 4 7 C-1.445 6.505 -1.445 6.505 -7 6 C-7 7.32 -7 8.64 -7 10 C-6.32453125 10.17015625 -5.6490625 10.3403125 -4.953125 10.515625 C4.75615341 13.15340584 4.75615341 13.15340584 7 17 C7.07332936 21.10644432 6.62818266 23.20970569 4.0625 26.4375 C-0.32915701 28.67814133 -4.16155454 28.65697742 -9 28 C-14.57608696 25.84782609 -14.57608696 25.84782609 -16 23 C-15.01 21.515 -15.01 21.515 -14 20 C-13.154375 20.33 -12.30875 20.66 -11.4375 21 C-7.79010784 22.06105954 -4.77725336 22.15109013 -1 22 C-0.67 20.68 -0.34 19.36 0 18 C-0.59167969 17.89042969 -1.18335938 17.78085938 -1.79296875 17.66796875 C-10.85571852 15.84950509 -10.85571852 15.84950509 -14 13 C-15.0625 9.625 -15.0625 9.625 -15 6 C-11.01957331 -0.31378027 -7.03826279 -0.72809615 0 0 Z " fill="#F1F1F1" transform="translate(796,135)"/>
<path d="M0 0 C2.31 0 4.62 0 7 0 C7 3.3 7 6.6 7 10 C8.65 10 10.3 10 12 10 C12 11.98 12 13.96 12 16 C10.35 16 8.7 16 7 16 C7.33 20.95 7.66 25.9 8 31 C9.65 31 11.3 31 13 31 C13.33 32.65 13.66 34.3 14 36 C10.35969312 38.3297964 7.24881273 38.3862557 3 38 C0.84995585 36.42668377 0.09246949 35.56601935 -0.34057617 32.9152832 C-0.32486572 32.13499756 -0.30915527 31.35471191 -0.29296875 30.55078125 C-0.28330078 29.70322266 -0.27363281 28.85566406 -0.26367188 27.98242188 C-0.23853516 27.10134766 -0.21339844 26.22027344 -0.1875 25.3125 C-0.17396484 24.41982422 -0.16042969 23.52714844 -0.14648438 22.60742188 C-0.11114079 20.40433834 -0.06180493 18.20247418 0 16 C-1.32 16 -2.64 16 -4 16 C-4 14.35 -4 12.7 -4 11 C-2.68 11 -1.36 11 0 11 C0 7.37 0 3.74 0 0 Z " fill="#F1F1F1" transform="translate(733,125)"/>
<path d="M0 0 C2.31 0 4.62 0 7 0 C7.33 10.23 7.66 20.46 8 31 C9.65 31.33 11.3 31.66 13 32 C13.042721 33.66611905 13.04063832 35.33382885 13 37 C12 38 12 38 8.125 38.25 C4.2943362 38.20888375 4.2943362 38.20888375 2.0625 36.625 C-0.3236081 32.9756582 -0.12838186 29.82163532 -0.09765625 25.5859375 C-0.0962413 24.85629791 -0.09482635 24.12665833 -0.09336853 23.37490845 C-0.08776531 21.04156415 -0.07521235 18.70831536 -0.0625 16.375 C-0.05748541 14.79427222 -0.05292243 13.21354293 -0.04882812 11.6328125 C-0.03779484 7.75517146 -0.02052811 3.87760193 0 0 Z " fill="#F2F2F2" transform="translate(570,125)"/>
<path d="M0 0 C3.56238804 2.63306942 4.82712575 4.04919164 5.625 8.4375 C4.77969084 13.25576218 3.69374497 14.77779694 0 18 C-3.5 18.6875 -3.5 18.6875 -7 18 C-9.91368224 16.01621635 -11.63558769 14.58551319 -12.4453125 11.0625 C-12.66348199 7.22271696 -12.23217682 5.36374368 -10.125 2.0625 C-6.56898266 -1.38892859 -4.74322368 -1.3020614 0 0 Z " fill="#3E3E3E" transform="translate(363,184)"/>
<path d="M0 0 C9.17647059 0 9.17647059 0 14 4 C15.57455739 7.14911479 15.34799118 9.52008816 15 13 C12.59531672 17.40858601 12.59531672 17.40858601 10 19 C6.50890096 19.50634261 3.55644312 19.28451545 0 19 C0 12.73 0 6.46 0 0 Z " fill="#454545" transform="translate(699,183)"/>
<path d="M0 0 C0 2.31 0 4.62 0 7 C-1.134375 7.309375 -2.26875 7.61875 -3.4375 7.9375 C-6.78775099 8.62924531 -6.78775099 8.62924531 -8 10 C-8.15582303 11.34015221 -8.25044142 12.68758903 -8.31640625 14.03515625 C-8.35830078 14.84404297 -8.40019531 15.65292969 -8.44335938 16.48632812 C-8.48267578 17.33646484 -8.52199219 18.18660156 -8.5625 19.0625 C-8.60568359 19.91650391 -8.64886719 20.77050781 -8.69335938 21.65039062 C-8.79976702 23.76672037 -8.90041731 25.88333813 -9 28 C-11.31 28 -13.62 28 -16 28 C-16 19.09 -16 10.18 -16 1 C-14.02 1 -12.04 1 -10 1 C-9.67 2.32 -9.34 3.64 -9 5 C-8.2575 4.175 -7.515 3.35 -6.75 2.5 C-4 0 -4 0 0 0 Z " fill="#F8F8F8" transform="translate(439,135)"/>
<path d="M0 0 C7.51953125 -0.390625 7.51953125 -0.390625 10 0 C11.84765625 1.81640625 11.84765625 1.81640625 13 4 C12.625 7.1875 12.625 7.1875 12 10 C12.33 10.33 12.66 10.66 13 11 C13.1875 13.9375 13.1875 13.9375 13 17 C11 19 11 19 8.3984375 19.1953125 C5.59895833 19.13020833 2.79947917 19.06510417 0 19 C0 12.73 0 6.46 0 0 Z " fill="#D0D0D0" transform="translate(447,183)"/>
<path d="M0 0 C2.31 0 4.62 0 7 0 C7 8.91 7 17.82 7 27 C4.69 27 2.38 27 0 27 C0 18.09 0 9.18 0 0 Z " fill="#FAFAFA" transform="translate(587,136)"/>
<path d="M0 0 C3.4099038 0.92997376 4.3811632 1.23855795 6.4375 3.9375 C7.05079775 6.98741311 6.94536669 9.87318076 6.4375 12.9375 C4.27104504 15.6872313 2.86717724 15.86588713 -0.5625 16.4375 C-3.5625 15.9375 -3.5625 15.9375 -5.9375 13.875 C-7.96803614 10.20441544 -8.16440112 8.07557018 -7.5625 3.9375 C-5.29401339 0.30792142 -4.30870043 -0.07559124 0 0 Z " fill="#070707" transform="translate(550.5625,141.0625)"/>
<path d="M0 0 C9 0 9 0 11.5625 1.0625 C13.77747898 4.04790645 13.38012341 6.38882765 13 10 C12.62875 10.70125 12.2575 11.4025 11.875 12.125 C10.69204203 14.10723196 10.69204203 14.10723196 11.875 16.75 C12.24625 17.4925 12.6175 18.235 13 19 C9.125 15.25 9.125 15.25 8 13 C4.97065509 12.34227572 4.97065509 12.34227572 2 12 C2 14.31 2 16.62 2 19 C1.34 19 0.68 19 0 19 C0 12.73 0 6.46 0 0 Z " fill="#B7B7B7" transform="translate(619,183)"/>
<path d="M0 0 C9 0 9 0 11.625 1.625 C13 4 13 4 12.875 7.0625 C12 10 12 10 10 13 C10.99 14.98 11.98 16.96 13 19 C10 18 10 18 8.6875 15.5 C7.18040486 12.66976425 7.18040486 12.66976425 3.8125 12.1875 C2.884375 12.125625 1.95625 12.06375 1 12 C1 14.31 1 16.62 1 19 C0.67 19 0.34 19 0 19 C0 12.73 0 6.46 0 0 Z " fill="#636363" transform="translate(372,183)"/>
<path d="M0 0 C1.32 0.33 2.64 0.66 4 1 C5.75 4.0625 5.75 4.0625 7 7 C8.74271938 4.702779 10.39911152 2.40133271 12 0 C12.99 0 13.98 0 15 0 C15 5.28 15 10.56 15 16 C14.01 16 13.02 16 12 16 C11.67 13.36 11.34 10.72 11 8 C10.54625 8.825 10.0925 9.65 9.625 10.5 C9.08875 11.325 8.5525 12.15 8 13 C7.34 13 6.68 13 6 13 C5.34 11.68 4.68 10.36 4 9 C3.67 11.31 3.34 13.62 3 16 C2.01 16 1.02 16 0 16 C0 10.72 0 5.44 0 0 Z " fill="#DEDEDE" transform="translate(819,99)"/>
<path d="M0 0 C3.33895691 2.69723546 4.6171619 6.32175412 6.1875 10.1875 C6.46013672 10.84169922 6.73277344 11.49589844 7.01367188 12.16992188 C7.68239798 13.77721092 8.34209925 15.38824962 9 17 C8.34 17.33 7.68 17.66 7 18 C6.34 16.35 5.68 14.7 5 13 C2.03 12.67 -0.94 12.34 -4 12 C-4.66 13.98 -5.32 15.96 -6 18 C-6.66 17.67 -7.32 17.34 -8 17 C-6.85700498 14.35290709 -5.71075628 11.70730948 -4.5625 9.0625 C-4.23701172 8.30775391 -3.91152344 7.55300781 -3.57617188 6.77539062 C-1.11328125 1.11328125 -1.11328125 1.11328125 0 0 Z " fill="#CACACA" transform="translate(762,184)"/>
<path d="M0 0 C0.66 0 1.32 0 2 0 C3.17112946 2.62309099 4.33705964 5.24828142 5.5 7.875 C5.83386719 8.62136719 6.16773438 9.36773437 6.51171875 10.13671875 C6.98544922 11.20986328 6.98544922 11.20986328 7.46875 12.3046875 C7.76201172 12.96452637 8.05527344 13.62436523 8.35742188 14.30419922 C9 16 9 16 9 18 C8.34 18 7.68 18 7 18 C6.34 16.35 5.68 14.7 5 13 C2.03 12.67 -0.94 12.34 -4 12 C-4.66 13.98 -5.32 15.96 -6 18 C-7.35685993 13.92942022 -5.80868515 11.57910733 -4.125 7.875 C-3.70154297 6.90626953 -3.70154297 6.90626953 -3.26953125 5.91796875 C-1.16870301 1.16870301 -1.16870301 1.16870301 0 0 Z " fill="#C7C7C7" transform="translate(687,184)"/>
<path d="M0 0 C0.66 0 1.32 0 2 0 C3.19706817 2.6210121 4.38288646 5.24614696 5.5625 7.875 C5.90474609 8.62136719 6.24699219 9.36773437 6.59960938 10.13671875 C7.45973857 12.06549332 8.23616798 14.0311033 9 16 C8.67 16.66 8.34 17.32 8 18 C6 15 6 15 6 12 C2.92545953 12.07090135 -0.01122299 12.2475065 -3 13 C-5.1386077 15.38987933 -5.1386077 15.38987933 -6 18 C-6.33 17.34 -6.66 16.68 -7 16 C-5.92664301 13.23325418 -4.79739939 10.56805742 -3.5625 7.875 C-3.22412109 7.12089844 -2.88574219 6.36679688 -2.53710938 5.58984375 C-1.69839399 3.72340669 -0.85008607 1.8612857 0 0 Z " fill="#D1D1D1" transform="translate(560,184)"/>
<path d="M0 0 C0.66 0 1.32 0 2 0 C2 6.27 2 12.54 2 19 C1.34 19 0.68 19 0 19 C-0.33 14.71 -0.66 10.42 -1 6 C-3.97 10.95 -3.97 10.95 -7 16 C-10.22914643 12.77085357 -11.82681003 9.97169202 -14 6 C-14.33 10.29 -14.66 14.58 -15 19 C-15.33 19 -15.66 19 -16 19 C-16 13.06 -16 7.12 -16 1 C-12.21681784 4.78318216 -10.46326463 7.42536568 -8 12 C-4.78119883 8.2064129 -2.3836813 4.34170523 0 0 Z " fill="#BEBEBE" transform="translate(675,183)"/>
<path d="M0 0 C6.0546875 -0.1953125 6.0546875 -0.1953125 8 0 C10 2 10 2 10.3125 4.5 C10.1578125 5.7375 10.1578125 5.7375 10 7 C6.3558226 9.4294516 4.28758728 9.16179575 0 9 C0 6.03 0 3.06 0 0 Z " fill="#080808" transform="translate(621,185)"/>
<path d="M0 0 C1.45792884 -0.05399736 2.91642712 -0.09279177 4.375 -0.125 C5.18710937 -0.14820313 5.99921875 -0.17140625 6.8359375 -0.1953125 C9 0 9 0 11 2 C10.44444444 6.55555556 10.44444444 6.55555556 9 8 C7.48071962 8.07179964 5.95832518 8.08392007 4.4375 8.0625 C3.61121094 8.05347656 2.78492188 8.04445312 1.93359375 8.03515625 C1.29550781 8.02355469 0.65742188 8.01195312 0 8 C0 5.36 0 2.72 0 0 Z " fill="#151515" transform="translate(448,193)"/>
<path d="M0 0 C4.29 0 8.58 0 13 0 C13 0.66 13 1.32 13 2 C9.37 2 5.74 2 2 2 C2 4.31 2 6.62 2 9 C4.97 9 7.94 9 11 9 C11 9.33 11 9.66 11 10 C8.03 10 5.06 10 2 10 C2 12.64 2 15.28 2 18 C5.63 18 9.26 18 13 18 C13 18.33 13 18.66 13 19 C8.71 19 4.42 19 0 19 C0 12.73 0 6.46 0 0 Z " fill="#B3B3B3" transform="translate(603,183)"/>
<path d="M0 0 C3.4375 0.8125 3.4375 0.8125 5.4375 3.8125 C5.4375 4.8025 5.4375 5.7925 5.4375 6.8125 C0.8175 6.8125 -3.8025 6.8125 -8.5625 6.8125 C-5.71713918 -0.30090206 -5.71713918 -0.30090206 0 0 Z " fill="#161616" transform="translate(375.5625,140.1875)"/>
<path d="M0 0 C4.29 0 8.58 0 13 0 C13 0.99 13 1.98 13 3 C11.35 3 9.7 3 8 3 C8 7.29 8 11.58 8 16 C7.01 16 6.02 16 5 16 C5 11.71 5 7.42 5 3 C3.35 3 1.7 3 0 3 C0 2.01 0 1.02 0 0 Z " fill="#D6D6D6" transform="translate(804,99)"/>
<path d="M0 0 C3.96 0 7.92 0 12 0 C12 0.66 12 1.32 12 2 C8.7 2 5.4 2 2 2 C2 4.31 2 6.62 2 9 C4.97 9 7.94 9 11 9 C11 9.33 11 9.66 11 10 C8.03 10 5.06 10 2 10 C2 12.64 2 15.28 2 18 C5.3 18 8.6 18 12 18 C12 18.33 12 18.66 12 19 C8.04 19 4.08 19 0 19 C0 12.73 0 6.46 0 0 Z " fill="#D3D3D3" transform="translate(740,183)"/>
<path d="M0 0 C1.23556641 0.01740234 1.23556641 0.01740234 2.49609375 0.03515625 C3.32238281 0.04417969 4.14867187 0.05320313 5 0.0625 C5.63808594 0.07410156 6.27617187 0.08570313 6.93359375 0.09765625 C7.18359375 2.41015625 7.18359375 2.41015625 6.93359375 5.09765625 C4.76976407 7.42176961 3.46414135 8.03449582 0.30859375 8.41015625 C-2.06640625 8.09765625 -2.06640625 8.09765625 -4.06640625 6.09765625 C-3.34205084 0.15794191 -3.34205084 0.15794191 0 0 Z " fill="#070707" transform="translate(402.06640625,149.90234375)"/>
<path d="M0 0 C2.05078125 0.03255208 4.1015625 0.06510417 6.15234375 0.09765625 C6.48234375 1.74765625 6.81234375 3.39765625 7.15234375 5.09765625 C4.88496431 7.11310464 3.57948391 8.04680623 0.52734375 8.41015625 C-1.84765625 8.09765625 -1.84765625 8.09765625 -3.84765625 6.09765625 C-3.12417691 0.16512563 -3.12417691 0.16512563 0 0 Z " fill="#060606" transform="translate(710.84765625,149.90234375)"/>
<path d="M0 0 C0.99 0.33 1.98 0.66 3 1 C1.84164381 3.84323792 0.6782639 5.31388887 -1.5625 7.5 C-3.86376327 9.86027002 -4.64621864 10.81596775 -5 14 C-6.9375 14.5625 -6.9375 14.5625 -9 15 C-9.33 14.67 -9.66 14.34 -10 14 C-11.68183948 13.76712992 -13.3712416 13.58735834 -15.0625 13.4375 C-15.98160156 13.35371094 -16.90070313 13.26992187 -17.84765625 13.18359375 C-18.55792969 13.12300781 -19.26820313 13.06242187 -20 13 C-20 13.66 -20 14.32 -20 15 C-20.99 15 -21.98 15 -23 15 C-23 13.68 -23 12.36 -23 11 C-22.11957031 11.03480469 -21.23914063 11.06960937 -20.33203125 11.10546875 C-18.58986328 11.14607422 -18.58986328 11.14607422 -16.8125 11.1875 C-15.08966797 11.23970703 -15.08966797 11.23970703 -13.33203125 11.29296875 C-9.6334998 10.96777548 -7.91107103 10.26416636 -5 8 C-3.37999001 6.00475304 -3.37999001 6.00475304 -2.1875 3.8125 C-1.76855469 3.09707031 -1.34960938 2.38164063 -0.91796875 1.64453125 C-0.46357422 0.83048828 -0.46357422 0.83048828 0 0 Z " fill="#B6C7AC" transform="translate(326,77)"/>
<path d="M0 0 C0.33 0.66 0.66 1.32 1 2 C-1.97 2 -4.94 2 -8 2 C-7.67 3.65 -7.34 5.3 -7 7 C-5.329375 7.433125 -5.329375 7.433125 -3.625 7.875 C0 9 0 9 2 11 C2.25 13.5 2.25 13.5 2 16 C-0.59335905 18.59335905 -2.48747032 18.27726563 -6.02734375 18.36328125 C-8.51610505 17.90495491 -9.39831592 16.90294128 -11 15 C-10.37351562 15.08378906 -9.74703125 15.16757813 -9.1015625 15.25390625 C-8.28429687 15.35574219 -7.46703125 15.45757812 -6.625 15.5625 C-5.81289063 15.66691406 -5.00078125 15.77132812 -4.1640625 15.87890625 C-1.95100814 16.18237328 -1.95100814 16.18237328 0 15 C-0.15110679 13.03164856 -0.15110679 13.03164856 -1 11 C-3.04831139 9.89794531 -3.04831139 9.89794531 -5.5 9.3125 C-9.94701987 8.05298013 -9.94701987 8.05298013 -11 7 C-11.3125 4.625 -11.3125 4.625 -11 2 C-7.75916232 -1.88900522 -4.6129543 -1.13147936 0 0 Z " fill="#BFBFBF" transform="translate(582,184)"/>
<path d="M0 0 C1.47906892 -0.02689216 2.95827483 -0.04634621 4.4375 -0.0625 C5.26121094 -0.07410156 6.08492188 -0.08570313 6.93359375 -0.09765625 C9 0 9 0 10 1 C10.125 3.5 10.125 3.5 10 6 C9 7 9 7 6.93359375 7.09765625 C6.10988281 7.08605469 5.28617187 7.07445312 4.4375 7.0625 C3.61121094 7.05347656 2.78492188 7.04445312 1.93359375 7.03515625 C1.29550781 7.02355469 0.65742188 7.01195312 0 7 C0 4.69 0 2.38 0 0 Z " fill="#090909" transform="translate(448,185)"/>
<path d="M0 0 C4.95 0 9.9 0 15 0 C15 0.66 15 1.32 15 2 C12.69 2 10.38 2 8 2 C8 7.61 8 13.22 8 19 C7.34 19 6.68 19 6 19 C6 13.39 6 7.78 6 2 C4.02 2 2.04 2 0 2 C0 1.34 0 0.68 0 0 Z " fill="#9E9E9E" transform="translate(586,183)"/>
<path d="M0 0 C2.31 0 4.62 0 7 0 C7 2.31 7 4.62 7 7 C4.69 7 2.38 7 0 7 C0 4.69 0 2.38 0 0 Z " fill="#F4F4F4" transform="translate(587,125)"/>
<path d="M0 0 C2.05078125 0.03255208 4.1015625 0.06510417 6.15234375 0.09765625 C5.16234375 0.42765625 4.17234375 0.75765625 3.15234375 1.09765625 C2.060681 3.03096228 2.060681 3.03096228 1.15234375 5.09765625 C0.49234375 5.75765625 -0.16765625 6.41765625 -0.84765625 7.09765625 C-1.55476303 8.74757207 -2.22709614 10.41327881 -2.84765625 12.09765625 C-3.50765625 12.09765625 -4.16765625 12.09765625 -4.84765625 12.09765625 C-4.70328125 11.58203125 -4.55890625 11.06640625 -4.41015625 10.53515625 C-3.76421658 7.90647804 -3.76421658 7.90647804 -3.34765625 4.41015625 C-2.70354109 0.14289329 -2.70354109 0.14289329 0 0 Z " fill="#C2DBB2" transform="translate(298.84765625,81.90234375)"/>
<path d="M0 0 C0.66 0 1.32 0 2 0 C2 5.94 2 11.88 2 18 C1.34 18 0.68 18 0 18 C-0.09087891 16.62714844 -0.09087891 16.62714844 -0.18359375 15.2265625 C-0.30927734 13.44378906 -0.30927734 13.44378906 -0.4375 11.625 C-0.51871094 10.44164062 -0.59992187 9.25828125 -0.68359375 8.0390625 C-0.81084936 5.08481099 -0.81084936 5.08481099 -2 3 C-1.34 2.01 -0.68 1.02 0 0 Z " fill="#B2B2B2" transform="translate(548,184)"/>
<path d="M0 0 C0.99 0 1.98 0 3 0 C3 4.95 3 9.9 3 15 C2.34 15 1.68 15 1 15 C1 11.7 1 8.4 1 5 C0.01 5 -0.98 5 -2 5 C-1.34 3.35 -0.68 1.7 0 0 Z " fill="#FBFBFB" transform="translate(831,99)"/>
<path d="M0 0 C2 1 2 1 3.125 3.375 C4 6 4 6 4 9 C1.69 9 -0.62 9 -3 9 C-2.01 6.03 -1.02 3.06 0 0 Z " fill="#151515" transform="translate(762,186)"/>
<path d="M0 0 C3.96 0 7.92 0 12 0 C12 0.66 12 1.32 12 2 C8.7 2 5.4 2 2 2 C2 4.31 2 6.62 2 9 C1.34 9 0.68 9 0 9 C0 6.03 0 3.06 0 0 Z " fill="#9D9D9D" transform="translate(740,183)"/>
<path d="M0 0 C2 1 2 1 3.125 3.375 C4 6 4 6 4 9 C1.69 9 -0.62 9 -3 9 C-2.01 6.03 -1.02 3.06 0 0 Z " fill="#111111" transform="translate(687,186)"/>
<path d="M0 0 C0.99 0.33 1.98 0.66 3 1 C4.1875 4.0625 4.1875 4.0625 5 7 C2.36 7 -0.28 7 -3 7 C-2.01 4.69 -1.02 2.38 0 0 Z " fill="#161616" transform="translate(560,188)"/>
<path d="M0 0 C0.99 0.33 1.98 0.66 3 1 C2.8125 2.8125 2.8125 2.8125 2 5 C0.35666496 6.03789581 -1.31243867 7.03567924 -3 8 C-4.01800576 9.31963709 -5.02248365 10.65009646 -6 12 C-6.66 12 -7.32 12 -8 12 C-7.6619668 8.84502343 -7.08066518 8.06618681 -4.5625 6 C-3.716875 5.34 -2.87125 4.68 -2 4 C-0.68834743 1.88339573 -0.68834743 1.88339573 0 0 Z " fill="#CCDBC3" transform="translate(289,75)"/>
<path d="M0 0 C0.99 0.33 1.98 0.66 3 1 C1.43754389 4.83511953 -1.10365784 7.10365784 -4 10 C-5.29519995 12.16620544 -5.29519995 12.16620544 -6 14 C-6.39451163 10.54802327 -6.21819966 9.2982062 -4.125 6.4375 C-3.42375 5.633125 -2.7225 4.82875 -2 4 C-1.29114106 2.68861096 -0.60543548 1.36222983 0 0 Z " fill="#ACD196" transform="translate(326,77)"/>
<path d="M0 0 C0.66 0 1.32 0 2 0 C3.5625 2.8125 3.5625 2.8125 5 6 C4.67 6.99 4.34 7.98 4 9 C3.34 7.68 2.68 6.36 2 5 C1.34 5 0.68 5 0 5 C-0.66 6.65 -1.32 8.3 -2 10 C-2.66 9.67 -3.32 9.34 -4 9 C-2.68 6.03 -1.36 3.06 0 0 Z " fill="#B3B3B3" transform="translate(560,184)"/>
<path d="M0 0 C0.66 0 1.32 0 2 0 C1.34 3.3 0.68 6.6 0 10 C-1.32 10.33 -2.64 10.66 -4 11 C-3.21681311 7.08406554 -1.60820142 3.63593365 0 0 Z " fill="#DEE8D8" transform="translate(307,64)"/>
<path d="M0 0 C1.65 0 3.3 0 5 0 C5 1.32 5 2.64 5 4 C2.03 3.505 2.03 3.505 -1 3 C-0.67 2.01 -0.34 1.02 0 0 Z " fill="#DEE4DB" transform="translate(313,77)"/>
<path d="M0 0 C0.99 0 1.98 0 3 0 C2.67 1.65 2.34 3.3 2 5 C1.01 4.67 0.02 4.34 -1 4 C-0.67 2.68 -0.34 1.36 0 0 Z " fill="#EBEDEA" transform="translate(317,87)"/>
</svg>
