<svg width="150" height="68" viewBox="0 0 150 68" fill="none" xmlns="http://www.w3.org/2000/svg">
<g clip-path="url(#clip0_77_2396)">
<path d="M150 57.9065C140.999 57.9065 131.995 57.9065 122.988 57.9065C122.644 57.9065 122.541 57.8241 122.541 57.4635C122.541 46.0677 122.541 34.6719 122.541 23.2761C122.541 22.9086 122.644 22.833 122.994 22.833C131.629 22.833 140.263 22.833 148.898 22.833C149.241 22.833 149.368 22.8948 149.365 23.2795C149.344 25.1616 149.344 27.0449 149.365 28.9293C149.365 29.3105 149.245 29.3689 148.905 29.3689C142.983 29.3689 137.066 29.3689 131.145 29.3518C130.774 29.3518 130.701 29.4617 130.701 29.8086C130.72 32.0479 130.72 34.2872 130.701 36.5265C130.701 36.87 130.777 36.9593 131.131 36.9593C136.338 36.9593 141.544 36.9593 146.751 36.9387C147.115 36.9387 147.177 37.0417 147.174 37.3748C147.155 39.2203 147.155 41.0647 147.174 42.9079C147.174 43.2239 147.088 43.2925 146.782 43.2925C141.575 43.2925 136.367 43.2925 131.158 43.2925C130.815 43.2925 130.698 43.3681 130.701 43.739C130.72 46.1501 130.72 48.5611 130.701 50.9722C130.701 51.3362 130.808 51.4015 131.141 51.3981C137.271 51.3981 143.401 51.3981 149.533 51.3981C149.689 51.375 149.849 51.3868 150 51.4324V57.9065Z" fill="#F7F7F7"/>
<path d="M62.8432 58.5239C58.0863 58.4896 53.8275 57.3493 50.1354 54.5124C48.2795 53.1333 46.7268 51.3876 45.5735 49.3836C44.4202 47.3796 43.691 45.16 43.4312 42.8624C42.8336 38.1193 43.7746 33.7163 46.6322 29.8112C49.0981 26.4204 52.6851 24.0125 56.7572 23.0142C62.4997 21.5271 68.0912 21.9495 73.2876 24.9925C77.8899 27.6886 80.8436 31.6933 81.7503 36.9756C82.815 43.1338 81.2901 48.605 76.8046 53.0871C74.1737 55.7145 70.9453 57.2806 67.3184 58.05C65.8455 58.3526 64.3467 58.5113 62.8432 58.5239ZM62.6474 29.1655C62.1219 29.1895 61.569 29.1998 61.0194 29.2754C57.5265 29.7665 54.8373 31.4769 53.0582 34.5371C51.6328 36.9962 51.31 39.6889 51.7565 42.4366C52.2614 45.586 53.7863 48.1413 56.5065 49.8826C58.7353 51.2866 61.387 51.8617 63.9972 51.5072C67.8954 51.0744 70.8079 49.1408 72.5835 45.6238C73.7959 43.2196 73.9848 40.6369 73.5246 38.006C73.1606 35.78 72.0858 33.7317 70.461 32.1673C68.2972 30.0653 65.6458 29.193 62.6474 29.1655Z" fill="#F7F7F7"/>
<path d="M30.2854 58.5241C26.164 58.5035 22.4409 57.6621 19.0888 55.5052C14.4865 52.5377 11.7836 48.3167 11.0726 42.8764C10.5952 39.2358 11.0383 35.7051 12.6868 32.3873C13.7134 30.2476 15.1696 28.3422 16.9647 26.7899C18.7599 25.2376 20.8555 24.0717 23.121 23.3648C28.1607 21.6396 33.6572 21.8155 38.5764 23.8593C40.8895 24.8113 42.9402 26.3048 44.5559 28.2143C44.7276 28.4135 44.7139 28.5028 44.5216 28.678C42.9188 30.1342 41.316 31.5996 39.7132 33.0742C39.514 33.2562 39.4282 33.2391 39.253 33.0502C37.6353 31.2986 35.7223 29.99 33.3628 29.5023C29.4199 28.6883 25.769 29.2893 22.6779 32.037C20.6172 33.871 19.5868 36.2443 19.2983 38.9679C19.0192 41.1876 19.3679 43.4412 20.3046 45.4729C20.9774 46.9574 21.9968 48.2588 23.2769 49.2677C24.5571 50.2765 26.0607 50.9633 27.6614 51.2704C30.8452 51.9573 33.8917 51.6138 36.7011 49.8519C37.6483 49.2503 38.5033 48.5146 39.2393 47.6676C39.435 47.4478 39.5346 47.4787 39.727 47.6676C41.324 49.1375 42.9245 50.6075 44.5353 52.0603C44.7998 52.2973 44.6315 52.4038 44.4975 52.5549C41.9079 55.5292 38.621 57.2774 34.795 58.0776C33.3091 58.3675 31.7993 58.517 30.2854 58.5241Z" fill="#F7F7F7"/>
<path d="M120.804 57.9067C117.864 57.9067 115.003 57.9067 112.142 57.9067C111.905 57.9067 111.823 57.7659 111.72 57.6182C109.602 54.5913 107.492 51.5597 105.39 48.5236C105.316 48.3968 105.208 48.2934 105.078 48.2254C104.948 48.1573 104.801 48.1274 104.655 48.1389C102.467 48.1389 100.279 48.1389 98.0916 48.1389C97.81 48.1389 97.7275 48.0427 97.7001 47.7955C97.5077 45.8824 97.3394 43.9694 97.3223 42.046C97.3223 41.7507 97.439 41.7026 97.7001 41.7026C99.7814 41.7026 101.866 41.7026 103.947 41.7026C105.293 41.7423 106.635 41.5661 107.925 41.1805C110.284 40.3837 111.665 38.5806 111.806 36.1043C111.888 34.624 111.665 33.2158 110.775 31.9828C109.797 30.6296 108.388 30.0114 106.805 29.7057C105.91 29.5457 105.001 29.4709 104.092 29.4825C102.165 29.4825 100.242 29.4825 98.3183 29.4825C98.0126 29.4825 97.9061 29.4275 97.9577 29.0978C98.2668 27.1367 98.5965 25.179 98.988 23.2316C99.0258 23.0427 99.067 22.9157 99.3315 22.9088C101.674 22.8298 104.02 22.8023 106.362 22.9088C109.68 23.0668 112.822 23.8533 115.539 25.8728C116.797 26.7826 117.849 27.9487 118.624 29.2944C119.399 30.64 119.879 32.1345 120.035 33.6795C120.369 35.9558 120.107 38.2798 119.276 40.4249C118.125 43.2619 116.051 45.2161 113.31 46.4938C112.967 46.6586 112.946 46.7548 113.159 47.057C115.646 50.5534 118.124 54.0669 120.595 57.5976C120.653 57.6801 120.708 57.7659 120.804 57.9067Z" fill="#F7F7F7"/>
<path d="M8.87408 17.269C7.71664 17.135 6.43213 17.0114 5.15448 16.8362C3.68106 16.6302 2.18704 16.6267 0.720489 16.3554H0.696447C0.456029 16.3554 0.102272 16.479 0.00953942 16.2386C-0.0831931 15.9982 0.294606 15.878 0.476637 15.7166C2.26603 14.1161 4.04856 12.5053 5.85169 10.9082C6.99653 9.90075 8.14138 8.88871 9.28623 7.87208C10.4334 6.84172 11.5977 5.81136 12.7517 4.781C13.9057 3.75064 15.0288 2.72028 16.1862 1.72426C16.777 1.21939 17.3265 0.6939 17.9035 0.154678C17.9679 0.0920487 18.0466 0.0461512 18.1328 0.0210037C18.219 -0.00414385 18.3101 -0.00777412 18.3981 0.0104279C19.6803 0.161548 20.9614 0.304653 22.2413 0.439745C23.5968 0.586285 24.9557 0.728248 26.3181 0.86563C27.9014 1.02705 29.4847 1.17474 31.0681 1.34303C32.2702 1.47011 33.4722 1.6281 34.6709 1.75174C35.8695 1.87538 36.9995 1.97155 38.1638 2.09519C38.9881 2.17762 39.8124 2.27035 40.6367 2.35965C40.6985 2.35965 40.7741 2.33905 40.8015 2.42147C40.829 2.5039 40.7706 2.54168 40.7157 2.57603C39.809 3.15303 39.1667 4.03571 38.2806 4.63675C38.1113 4.763 37.9548 4.90566 37.8135 5.06263C36.9892 5.89379 36.0653 6.61504 35.1895 7.38781C34.5988 7.90986 34.0115 8.43878 33.4207 8.9574C33.2748 9.10682 33.0949 9.21862 32.8963 9.28323C32.6977 9.34783 32.4864 9.36331 32.2805 9.32833C30.8322 9.12472 29.3659 9.08209 27.9083 9.20125C25.1182 9.36076 22.367 9.93251 19.7444 10.8979C17.8416 11.6244 16.0129 12.5318 14.2835 13.6078C12.7098 14.5585 11.2318 15.6592 9.8701 16.8946C9.75385 17.0417 9.59967 17.1543 9.42415 17.2203C9.24864 17.2863 9.05845 17.3031 8.87408 17.269Z" fill="#F7F7F7"/>
<path d="M34.465 20.9374C34.1765 20.9099 33.8914 20.8687 33.6029 20.8481C29.2792 20.5328 24.9431 21.2619 20.9604 22.974C18.9995 23.8027 17.1331 24.839 15.393 26.0651C14.421 26.752 13.5109 27.5317 12.587 28.2873C12.3843 28.4556 12.2847 28.5346 12.2023 28.1671C11.5154 25.1149 10.8125 22.065 10.0935 19.0175C10.0523 18.896 10.0497 18.7649 10.0859 18.6419C10.1222 18.5189 10.1956 18.4102 10.2961 18.3306C11.5776 17.2033 12.9389 16.1702 14.3695 15.2395C15.8122 14.3024 17.3406 13.5044 18.934 12.8559C20.6738 12.1412 22.4752 11.5871 24.3159 11.2005C26.4953 10.7536 28.7241 10.5966 30.9446 10.7334C31.5101 10.7516 32.0742 10.8009 32.6344 10.881C32.7108 10.8817 32.7843 10.9109 32.8403 10.9631C32.8962 11.0152 32.9306 11.0864 32.9366 11.1627C33.4071 13.402 33.8983 15.6276 34.3791 17.8703C34.5749 18.7839 34.7535 19.7009 34.963 20.618C35.0282 20.9168 34.963 21.0026 34.6676 20.9614C34.6025 20.9545 34.5369 20.9545 34.4718 20.9614L34.465 20.9374Z" fill="#F7F7F7"/>
<path d="M95.7116 38.9065C95.3235 39.0439 95.1586 38.7795 94.9457 38.4257C94.5986 37.8235 94.0458 37.3668 93.3889 37.1396C92.7321 36.9125 92.0152 36.9301 91.3703 37.1893C91.2955 37.2269 91.2121 37.2445 91.1284 37.2402C91.0448 37.236 90.9636 37.2102 90.8929 37.1652C90.0995 36.6947 89.3062 36.2345 88.5059 35.7914C88.4255 35.7482 88.3591 35.6829 88.3147 35.6032C88.2702 35.5234 88.2496 35.4326 88.2552 35.3415C88.2174 34.0398 88.1006 32.745 87.977 31.4501C87.7984 29.5772 87.5545 27.7145 87.2454 25.8622C87.1321 25.1753 87.0153 24.5124 86.902 23.8426C86.8608 23.64 86.902 23.5851 87.1149 23.537C88.6244 23.1939 90.1659 23.0109 91.7138 22.9909C93.6719 22.9419 95.6296 23.1055 97.5525 23.4786C97.8341 23.5335 97.8959 23.5988 97.8444 23.9148C97.5559 25.4088 97.3121 26.9131 97.1266 28.4243C96.924 30.1072 96.7351 31.7902 96.6217 33.4834C96.5118 35.0839 96.4294 36.6844 96.4225 38.2917C96.426 38.9443 96.4328 38.9443 95.7116 38.9065Z" fill="#F7F7F7"/>
<path d="M96.4226 42.6462C96.5428 45.1053 96.6973 47.5576 96.9721 50.003C97.1953 51.9606 97.4804 53.908 97.8548 55.8417C97.8678 55.9336 97.892 56.0235 97.9269 56.1096C98.0127 56.3053 97.9269 56.3603 97.7414 56.3912C96.1401 56.7095 94.5139 56.8865 92.8815 56.9201C90.9476 56.9547 89.0155 56.782 87.1184 56.4049C86.9158 56.3603 86.8952 56.2779 86.9295 56.1096C87.3279 54.0969 87.6164 52.0671 87.8465 50.0304C88.0217 48.478 88.1213 46.9153 88.2381 45.356C88.2398 45.2648 88.2605 45.1749 88.2989 45.0921C88.3374 45.0093 88.3927 44.9354 88.4613 44.8752C89.2478 44.1883 90.0378 43.4808 90.8174 42.7733C90.8805 42.7087 90.9631 42.6667 91.0525 42.6537C91.1418 42.6406 91.233 42.6573 91.312 42.7011C91.9724 42.9834 92.7149 43.007 93.3919 42.7671C94.0689 42.5272 94.6309 42.0415 94.9663 41.4063C95.0274 41.2549 95.1382 41.1288 95.2806 41.0489C95.423 40.969 95.5883 40.94 95.7494 40.9667C96.4363 40.9873 96.4363 40.9667 96.4363 41.6227L96.4226 42.6462Z" fill="#F7F7F7"/>
<path d="M2.08719 35.1289C2.13184 33.8821 2.18336 32.6354 2.21427 31.3921C2.24174 30.3136 2.17305 29.2352 2.307 28.1636C2.32351 27.6869 2.48796 27.2272 2.77753 26.8482C2.9733 26.6284 2.72945 26.6043 2.63328 26.5597C2.45022 26.4717 2.28932 26.3437 2.16249 26.185C2.03566 26.0264 1.94617 25.8413 1.90064 25.6433C1.85512 25.4454 1.85473 25.2398 1.89951 25.0417C1.94429 24.8436 2.03309 24.6581 2.15932 24.499C2.21427 24.4268 2.27952 24.3238 2.35165 24.3101C2.81531 24.2242 2.74319 23.9048 2.72601 23.5682C2.61382 21.4846 2.51307 19.3987 2.42378 17.3105C2.42378 17.1697 2.30013 16.888 2.64015 16.9361C2.85309 16.9636 3.11068 16.8571 3.12442 17.2796C3.19655 19.4227 3.32019 21.559 3.41979 23.6987C3.40851 23.8007 3.4347 23.9032 3.49347 23.9873C3.55224 24.0713 3.63959 24.1311 3.7392 24.1555C3.91113 24.2354 4.06338 24.3521 4.18513 24.4974C4.30687 24.6427 4.39514 24.813 4.44366 24.9963C4.49217 25.1795 4.49975 25.3712 4.46585 25.5577C4.43196 25.7442 4.35741 25.921 4.24752 26.0754C4.07579 26.3124 3.69799 26.4567 3.69112 26.6765C3.68425 26.8963 4.0071 27.0955 4.09983 27.3634C4.32256 28.0091 4.46783 28.6789 4.53258 29.3588C4.80391 31.6291 5.05807 33.8993 5.31566 36.1695C5.31566 36.252 5.38778 36.3619 5.28475 36.4237C5.18171 36.4855 5.11989 36.3859 5.04089 36.3413C4.65114 36.078 4.18674 35.9479 3.71695 35.9701C3.24717 35.9924 2.79717 36.166 2.43408 36.4649C2.21427 36.6332 2.13871 36.592 2.11123 36.3138C2.07002 35.9085 2.12497 35.517 2.08719 35.1289Z" fill="#F7F7F7"/>
<path d="M83.4692 34.0977C83.8315 34.2487 84.1769 34.4375 84.4996 34.6609C86.2787 35.6913 88.0544 36.7629 89.8369 37.807C90.0807 37.9478 90.1082 38.068 89.933 38.2809C89.6956 38.5662 89.5433 38.9126 89.4934 39.2804C89.4488 39.586 89.3114 39.6238 89.0401 39.562C87.8105 39.2735 86.5809 38.9987 85.3479 38.724L83.5379 38.329C83.4486 38.3084 83.3319 38.329 83.3078 38.2157C83.2838 38.1023 83.404 38.0714 83.4727 38.0165L84.5889 37.1372C84.6782 37.0617 84.7709 37.0033 84.6988 36.8453C84.3038 35.9592 83.9089 35.0731 83.4692 34.0977Z" fill="#F7F7F7"/>
<path d="M92.4169 20.9163C93.7712 20.9018 95.1237 21.0168 96.456 21.2598C96.9918 21.3457 96.9918 21.3354 96.9128 21.8711C96.7857 22.7332 96.7891 22.7057 95.9511 22.5993C94.0567 22.3583 92.1423 22.318 90.2394 22.4791C89.5525 22.534 88.8656 22.5993 88.2028 22.7057C88.171 22.7154 88.1375 22.7175 88.1048 22.7118C88.0722 22.7062 88.0412 22.693 88.0146 22.6734C87.9879 22.6537 87.9661 22.628 87.9511 22.5985C87.9361 22.5689 87.9282 22.5363 87.928 22.5031C87.8765 22.194 87.825 21.8815 87.7666 21.5723C87.7391 21.4212 87.7941 21.3594 87.9417 21.3319C89.4143 21.0335 90.9146 20.8942 92.4169 20.9163Z" fill="#F7F7F7"/>
<path d="M92.5125 59.0018C91.0611 59.0105 89.6121 58.8817 88.185 58.6171C87.924 58.5725 87.7763 58.5106 87.8415 58.1603C88.027 57.1986 88.003 57.2055 88.9852 57.3223C90.7602 57.5414 92.5524 57.5874 94.3363 57.4597C95.0705 57.4192 95.802 57.3389 96.5275 57.2193C96.737 57.1815 96.8709 57.257 96.8709 57.4803C96.8709 57.4803 96.8709 57.5043 96.8709 57.5181C97.0461 58.5141 97.0461 58.5175 96.0501 58.6892C94.8823 58.8965 93.6986 59.001 92.5125 59.0018Z" fill="#F7F7F7"/>
<path d="M86.3537 45.1544C86.3949 44.6083 86.4155 44.0519 86.4773 43.499C86.5254 43.0937 86.4395 42.8533 86.0033 42.7193C85.416 42.5373 84.8528 42.2694 84.2861 42.0324C84.2105 42.0015 84.0834 41.9946 84.1075 41.871C84.1315 41.7474 84.2243 41.7817 84.2998 41.7611C85.8774 41.3032 87.4527 40.8452 89.0257 40.3873C89.2936 40.3083 89.4619 40.3048 89.51 40.6552C89.5621 41.023 89.7155 41.369 89.9531 41.6546C90.1317 41.8676 90.0733 41.9981 89.905 42.1355C89.3245 42.6506 88.7681 43.1899 88.1671 43.681C87.6279 44.1206 87.1367 44.6083 86.6009 45.0548C86.5391 45.0892 86.5013 45.1853 86.3537 45.1544Z" fill="#F7F7F7"/>
<path d="M92.4267 41.9183C92.1616 41.9331 91.8962 41.8943 91.6463 41.8042C91.3965 41.714 91.1675 41.5744 90.9729 41.3937C90.7783 41.213 90.6221 40.9949 90.5137 40.7524C90.4053 40.51 90.347 40.2482 90.3421 39.9826C90.3373 39.7171 90.386 39.4533 90.4855 39.2071C90.5849 38.9608 90.733 38.7371 90.9209 38.5494C91.1088 38.3617 91.3326 38.2139 91.5789 38.1147C91.8253 38.0154 92.0891 37.9669 92.3546 37.972C92.8522 37.9728 93.3318 38.1579 93.7009 38.4915C94.0701 38.8251 94.3026 39.2837 94.3535 39.7786C94.46 40.9841 93.385 42.0145 92.4267 41.9183Z" fill="#F7F7F7"/>
<path d="M35.5043 66.6296C35.8031 65.7744 36.1019 64.9124 36.3972 64.0606C36.4591 63.8923 36.4865 63.7343 36.7407 63.7171C36.9949 63.7 37.0498 63.8854 37.1151 64.0606C37.407 64.9261 37.7058 65.7779 38.039 66.7533L38.7705 64.6239C38.8529 64.3869 38.9354 64.1499 39.0109 63.9129C39.0242 63.849 39.0616 63.7927 39.1153 63.7556C39.169 63.7185 39.235 63.7035 39.2994 63.7137C39.4918 63.7137 39.5948 63.7137 39.5055 63.9747C39.1277 65.0497 38.7636 66.1351 38.4133 67.2204C38.3446 67.4402 38.2176 67.4471 38.0355 67.4574C37.9949 67.4648 37.9532 67.4641 37.9129 67.4553C37.8726 67.4465 37.8344 67.4298 37.8005 67.4062C37.7667 67.3825 37.7378 67.3524 37.7157 67.3176C37.6935 67.2828 37.6785 67.2439 37.6715 67.2032C37.3795 66.3171 37.0704 65.4379 36.7407 64.4762C36.4213 65.3898 36.1294 66.2278 35.8409 67.0693C35.7687 67.2788 35.7309 67.4608 35.415 67.4677C35.099 67.4745 35.0715 67.2547 34.996 67.059C34.6525 66.0801 34.3331 65.0944 34.0137 64.1087C33.9793 63.9954 33.7527 63.8168 34.0137 63.7343C34.2163 63.6691 34.443 63.6656 34.5289 63.985C34.6525 64.4556 34.8277 64.9089 34.9822 65.3589C35.1368 65.8088 35.2707 66.1935 35.4115 66.609L35.5043 66.6296Z" fill="#F7F7F7"/>
<path d="M16.9973 64.9603V67.1516C16.9973 67.3267 17.0283 67.4778 16.7501 67.495C16.4719 67.5122 16.4684 67.3645 16.4684 67.1516C16.4684 66.1212 16.4684 65.0908 16.4684 64.0605C16.4684 63.9471 16.386 63.772 16.5921 63.7411C16.6736 63.7171 16.761 63.7221 16.8393 63.7553C16.9176 63.7885 16.9819 63.8478 17.0214 63.9231C17.4816 64.7165 17.9625 65.503 18.4708 66.3273C18.6768 65.9838 18.8657 65.685 19.0478 65.3759C19.3363 64.8916 19.6316 64.4108 19.9064 63.9162C19.94 63.8371 20.002 63.7735 20.0802 63.7379C20.1584 63.7023 20.2471 63.6973 20.3289 63.7239C20.5693 63.7582 20.4662 63.9471 20.4662 64.0674C20.4662 65.0977 20.4662 66.1281 20.4662 67.1584C20.4662 67.3576 20.4456 67.4675 20.1949 67.471C19.9442 67.4744 19.9304 67.3508 19.9339 67.155C19.9339 66.4063 19.9339 65.6541 19.9339 64.8401C19.704 65.121 19.5037 65.4248 19.3363 65.7468C19.1233 66.0903 18.931 66.4337 18.7215 66.76C18.512 67.0863 18.378 67.1035 18.172 66.76C17.801 66.1556 17.437 65.5476 17.066 64.9397L16.9973 64.9603Z" fill="#F7F7F7"/>
<path d="M117.577 64.8986L116.547 66.6158C116.203 67.1619 116.155 67.1654 115.832 66.633C115.494 66.0485 115.12 65.4853 114.713 64.9466C114.713 65.6851 114.713 66.4269 114.713 67.1688C114.713 67.3749 114.682 67.4779 114.438 67.471C114.194 67.4642 114.177 67.392 114.18 67.1928C114.18 66.1384 114.18 65.0875 114.18 64.0331C114.18 63.93 114.108 63.7686 114.287 63.7411C114.465 63.7136 114.61 63.7068 114.723 63.906C115.125 64.5929 115.544 65.2798 115.96 65.9667C116.025 66.0766 116.097 66.1899 116.19 66.3411L117.491 64.1464C117.546 64.0537 117.608 63.9678 117.653 63.8716C117.745 63.6827 117.914 63.7205 118.065 63.7377C118.216 63.7548 118.178 63.9197 118.178 64.0227C118.178 65.0772 118.178 66.1281 118.178 67.1825C118.178 67.3714 118.154 67.4676 117.927 67.4676C117.701 67.4676 117.642 67.3852 117.646 67.1722C117.646 66.4132 117.646 65.6576 117.646 64.8986H117.577Z" fill="#F7F7F7"/>
<path d="M90.2833 66.4924C90.2833 65.6131 90.2833 64.8369 90.2833 64.0642C90.2833 63.8478 90.3039 63.7207 90.5752 63.7207C90.8465 63.7207 90.8294 63.8512 90.8294 64.0367C90.8294 65.067 90.8294 66.0974 90.8294 67.1278C90.8294 67.2411 90.9255 67.4163 90.7401 67.4712C90.6526 67.4986 90.5588 67.4977 90.4718 67.4687C90.3849 67.4398 90.3093 67.3842 90.2558 67.3098C89.6204 66.5061 88.9644 65.7162 88.3153 64.9056C88.2844 64.8644 88.2466 64.8301 88.1435 64.7202V67.1243C88.1435 67.3029 88.1916 67.4678 87.8859 67.4678C87.5803 67.4678 87.6009 67.3407 87.6009 67.1243C87.6009 66.094 87.6009 65.098 87.6009 64.0848C87.6009 63.9611 87.4979 63.7688 87.7211 63.7413C87.8029 63.7184 87.8898 63.7209 87.9701 63.7485C88.0505 63.7761 88.1205 63.8275 88.171 63.8959C88.7583 64.6377 89.3628 65.3693 89.9604 66.1043L90.2833 66.4924Z" fill="#F7F7F7"/>
<path d="M55.3062 64.7063C55.3062 65.5924 55.3062 66.3755 55.3062 67.1585C55.3062 67.3337 55.3371 67.4814 55.0589 67.4814C54.7807 67.4814 54.7601 67.3886 54.7601 67.1585C54.7601 66.1282 54.7601 65.0978 54.7601 64.0674C54.7601 63.9541 54.6777 63.7824 54.8666 63.724C54.9554 63.6986 55.0501 63.7018 55.137 63.7332C55.224 63.7647 55.2988 63.8227 55.3508 63.8991C55.9278 64.6307 56.5254 65.352 57.1162 66.0766L57.3909 66.4201C57.4547 66.2194 57.4723 66.0069 57.4425 65.7984C57.4425 65.194 57.4425 64.5861 57.4425 63.9816C57.4425 63.7652 57.5215 63.7206 57.7172 63.7171C57.913 63.7137 57.992 63.7583 57.992 63.9781C57.992 65.0085 57.992 66.056 57.992 67.0967C57.992 67.2135 58.0813 67.3921 57.913 67.4402C57.8273 67.4741 57.7327 67.4784 57.6442 67.4522C57.5558 67.4261 57.4787 67.371 57.4253 67.2959C57.0097 66.7533 56.5667 66.2312 56.1339 65.7023L55.3062 64.7063Z" fill="#F7F7F7"/>
<path d="M77.216 64.706C77.216 65.5921 77.216 66.3752 77.216 67.1583C77.216 67.3334 77.2469 67.4811 76.9687 67.4811C76.6905 67.4811 76.6665 67.3918 76.6699 67.1583C76.6699 66.1279 76.6699 65.0975 76.6699 64.0672C76.6699 63.9504 76.5875 63.7787 76.7798 63.7237C76.8682 63.6985 76.9623 63.7019 77.0486 63.7334C77.135 63.7648 77.2092 63.8228 77.2606 63.8989C77.8411 64.6304 78.4353 65.3483 79.026 66.0729L79.3042 66.4164C79.3644 66.2292 79.382 66.0309 79.3557 65.836C79.3557 65.2143 79.3557 64.5961 79.3557 63.9779C79.3557 63.7615 79.4347 63.7134 79.6339 63.7134C79.8331 63.7134 79.9087 63.7546 79.9052 63.971C79.9052 65.0014 79.9052 66.0523 79.9052 67.093C79.9052 67.2063 79.998 67.3884 79.8297 67.4365C79.744 67.4704 79.6493 67.4747 79.5609 67.4485C79.4725 67.4224 79.3954 67.3673 79.342 67.2922C78.9333 66.7633 78.5005 66.2618 78.0746 65.7295C77.8102 65.4238 77.5457 65.1044 77.216 64.706Z" fill="#F7F7F7"/>
<path d="M30.0479 67.509C29.7878 67.5235 29.5275 67.4849 29.2828 67.3955C29.0382 67.3062 28.8142 67.168 28.6247 66.9893C28.4351 66.8107 28.2839 66.5953 28.1802 66.3564C28.0765 66.1175 28.0225 65.8599 28.0215 65.5994C28.0429 65.0805 28.2642 64.5899 28.639 64.2303C29.0137 63.8707 29.513 63.6699 30.0324 63.6699C30.5518 63.6699 31.0511 63.8707 31.4259 64.2303C31.8006 64.5899 32.0219 65.0805 32.0433 65.5994C32.0441 65.8577 31.9923 66.1135 31.8912 66.3512C31.7901 66.5889 31.6417 66.8035 31.4551 66.9821C31.2685 67.1607 31.0475 67.2995 30.8056 67.3901C30.5637 67.4807 30.3059 67.5211 30.0479 67.509ZM31.4869 65.5994C31.4898 65.4078 31.4538 65.2175 31.3809 65.0402C31.3081 64.8629 31.1999 64.7023 31.0631 64.568C30.9263 64.4337 30.7636 64.3287 30.585 64.2592C30.4063 64.1897 30.2154 64.1573 30.0238 64.1638C29.8323 64.162 29.6424 64.1981 29.4649 64.2702C29.2875 64.3422 29.1261 64.4487 28.9901 64.5834C28.854 64.7182 28.746 64.8786 28.6723 65.0553C28.5986 65.2321 28.5607 65.4217 28.5607 65.6132C28.5606 65.8048 28.5991 65.9944 28.6739 66.1708C28.7487 66.3472 28.8584 66.5067 28.9962 66.6397C29.1341 66.7728 29.2974 66.8766 29.4763 66.9452C29.6552 67.0137 29.8461 67.0454 30.0376 67.0385C30.2291 67.0462 30.4201 67.0143 30.5987 66.9448C30.7774 66.8753 30.9397 66.7698 31.0757 66.6347C31.2118 66.4997 31.3185 66.338 31.3892 66.1599C31.46 65.9818 31.4932 65.791 31.4869 65.5994Z" fill="#F7F7F7"/>
<path d="M143.357 67.4341C143.284 67.4701 143.204 67.4904 143.123 67.4938C143.041 67.4972 142.96 67.4836 142.884 67.4539C142.808 67.4242 142.739 67.379 142.682 67.3212C142.624 67.2634 142.58 67.1942 142.55 67.1181C142.53 67.0701 142.482 67.0357 142.464 66.9876C142.193 66.2835 141.609 66.3007 141.008 66.3454C140.836 66.3454 140.819 66.4381 140.823 66.572C140.823 66.7678 140.823 66.967 140.823 67.1628C140.823 67.3586 140.843 67.4822 140.572 67.4822C140.301 67.4822 140.273 67.3826 140.277 67.1559C140.277 66.1278 140.277 65.0975 140.277 64.0648C140.277 63.821 140.314 63.7042 140.596 63.7214C141.001 63.7454 141.41 63.7214 141.819 63.7214C142.595 63.7489 143.1 64.0648 143.265 64.6041C143.46 65.2566 143.244 65.734 142.516 66.2286C142.798 66.6442 143.072 67.0357 143.357 67.4341ZM140.823 65.0299C140.823 65.2532 140.823 65.4764 140.823 65.7168C140.823 65.8542 140.867 65.9057 141.005 65.8989C141.372 65.9167 141.74 65.9017 142.104 65.8542C142.303 65.8234 142.485 65.7193 142.612 65.5623C142.739 65.4054 142.803 65.2067 142.792 65.0049C142.781 64.8032 142.695 64.6128 142.552 64.4707C142.408 64.3287 142.216 64.2453 142.014 64.2366C141.9 64.23 141.785 64.23 141.671 64.2366C140.826 64.2125 140.826 64.2125 140.826 65.0402L140.823 65.0299Z" fill="#F7F7F7"/>
<path d="M48.6946 66.2525L49.5326 67.4374C49.148 67.5336 48.8732 67.4718 48.7187 67.1146C48.6981 67.0665 48.65 67.0322 48.6328 66.9841C48.3649 66.2697 47.7742 66.2972 47.1766 66.3487C47.0392 66.3487 46.9911 66.4002 46.9945 66.5342C46.9945 66.7437 46.9945 66.9566 46.9945 67.1661C46.9945 67.3756 46.9945 67.4821 46.7404 67.4821C46.4862 67.4821 46.445 67.3722 46.4484 67.1386C46.4484 66.1106 46.4484 65.0802 46.4484 64.0476C46.4484 63.8003 46.4965 63.7041 46.7713 63.7041C47.1628 63.7281 47.5612 63.7041 47.9562 63.7041C48.7564 63.7247 49.2716 64.0476 49.4365 64.5902C49.6322 65.284 49.4193 65.7545 48.6946 66.2525ZM46.9945 65.0333V65.6961C46.9945 65.7923 46.9945 65.8885 47.1285 65.885C47.5736 65.9247 48.0223 65.8934 48.4576 65.7923C48.6145 65.7378 48.7486 65.6326 48.8389 65.4932C48.9291 65.3538 48.9702 65.1883 48.9556 65.023C48.9634 64.8644 48.9193 64.7075 48.8301 64.5762C48.7409 64.4448 48.6114 64.3461 48.4611 64.2948C48.2491 64.2231 48.0248 64.195 47.8016 64.2124C46.9945 64.2124 46.9945 64.2124 46.9945 65.0333Z" fill="#F7F7F7"/>
<path d="M63.5147 66.3385C63.5147 67.1388 63.3361 67.3448 62.5256 67.4719C61.3063 67.6643 60.324 67.0632 60.1214 65.9951C60.0602 65.6971 60.0705 65.3889 60.1515 65.0958C60.2325 64.8026 60.3818 64.5328 60.5873 64.3086C60.7928 64.0843 61.0485 63.912 61.3335 63.8057C61.6185 63.6995 61.9246 63.6623 62.2268 63.6974C62.6243 63.7047 63.0091 63.8382 63.3258 64.0786C63.4048 64.1439 63.6178 64.1885 63.4529 64.3637C63.3464 64.4736 63.264 64.6453 63.0442 64.4736C62.8724 64.3383 62.6723 64.2436 62.4588 64.1966C62.2453 64.1496 62.0239 64.1515 61.8112 64.2022C61.4623 64.2533 61.1454 64.4341 60.9239 64.7085C60.7023 64.9828 60.5924 65.3307 60.616 65.6825C60.6349 66.0343 60.7832 66.3668 61.0324 66.6159C61.2815 66.865 61.6139 67.0133 61.9657 67.0323C62.0708 67.0426 62.1766 67.0426 62.2817 67.0323C62.9343 66.9705 62.9995 66.8949 62.9995 66.2458C62.9995 66.1153 62.9995 65.9813 62.9995 65.8508C62.9755 65.6379 63.0717 65.5898 63.2709 65.5864C63.4701 65.5829 63.5422 65.6791 63.5285 65.8714C63.5147 66.0638 63.5147 66.1805 63.5147 66.3385Z" fill="#F7F7F7"/>
<path d="M11.4873 65.5896C11.4873 65.0641 11.4873 64.5352 11.4873 64.0097C11.4873 63.8071 11.5423 63.735 11.7518 63.7384C12.4661 63.7384 13.1771 63.7384 13.888 63.7384C14.0529 63.7384 14.1559 63.7384 14.1594 63.9685C14.1628 64.1986 14.0495 64.2192 13.8674 64.2192C13.3523 64.2192 12.8371 64.2192 12.3253 64.2192C12.1158 64.2192 12.0265 64.2467 12.0231 64.4906C12.0231 65.3561 11.9991 65.3561 12.8714 65.3561C13.1359 65.3561 13.4003 65.3561 13.6614 65.3561C13.8434 65.3561 13.9155 65.4042 13.9224 65.5999C13.9293 65.7957 13.8056 65.8197 13.6476 65.8197C13.1905 65.7823 12.731 65.7823 12.2738 65.8197C11.7724 65.8987 12.1261 66.3418 12.0506 66.6062C12.0094 66.7471 11.9166 67.0218 12.2772 67.0081C12.8302 67.0081 13.3866 67.0081 13.9396 67.0081C14.1079 67.0081 14.2418 67.0081 14.2452 67.2451C14.2487 67.4821 14.0976 67.4717 13.9396 67.4717C13.2286 67.4717 12.5142 67.4717 11.8033 67.4717C11.5663 67.4717 11.4804 67.4168 11.4907 67.1661C11.501 66.644 11.4873 66.1185 11.4873 65.5896Z" fill="#F7F7F7"/>
<path d="M135.299 65.6132C135.299 65.0843 135.299 64.5588 135.299 64.0333C135.299 63.8135 135.35 63.731 135.58 63.7345C136.267 63.7345 136.978 63.7345 137.676 63.7345C137.854 63.7345 137.974 63.7345 137.971 63.9818C137.967 64.2291 137.827 64.2153 137.662 64.2119C137.147 64.2119 136.631 64.2119 136.12 64.2119C135.89 64.2119 135.838 64.2874 135.835 64.5038C135.835 65.3521 135.835 65.3521 136.659 65.3521C136.937 65.3521 137.215 65.3521 137.49 65.3521C137.693 65.3521 137.727 65.4414 137.73 65.6166C137.734 65.7918 137.627 65.8192 137.483 65.8192C137.02 65.8192 136.559 65.8192 136.109 65.8192C135.893 65.8192 135.852 65.8879 135.848 66.0871C135.824 67.0248 135.817 67.0248 136.745 67.0248C137.088 67.0248 137.456 67.0248 137.809 67.0248C138.005 67.0248 138.057 67.0934 138.057 67.2789C138.057 67.4644 137.967 67.4919 137.816 67.4884C137.064 67.4884 136.312 67.4884 135.563 67.4884C135.337 67.4884 135.306 67.3957 135.309 67.2068C135.306 66.6676 135.299 66.1387 135.299 65.6132Z" fill="#F7F7F7"/>
<path d="M41.4727 65.6132C41.4727 65.0843 41.4727 64.5588 41.4727 64.0333C41.4727 63.8135 41.5242 63.731 41.7543 63.7345C42.4412 63.7345 43.1521 63.7345 43.8528 63.7345C44.028 63.7345 44.1482 63.7345 44.1447 63.9818C44.1413 64.2291 44.0005 64.2153 43.8356 64.2119C43.3204 64.2119 42.8053 64.2119 42.2935 64.2119C42.0634 64.2119 42.0119 64.2874 42.0119 64.5038C42.0119 65.3521 41.9913 65.3521 42.8362 65.3521C43.1109 65.3521 43.3891 65.3521 43.6639 65.3521C43.8665 65.3521 43.9009 65.4414 43.9043 65.6166C43.9077 65.7918 43.8013 65.8192 43.657 65.8192C43.1934 65.8192 42.7331 65.8192 42.2832 65.8192C42.0668 65.8192 42.0256 65.8879 42.0222 66.0871C41.9981 67.0248 41.9913 67.0248 42.9186 67.0248C43.262 67.0248 43.6295 67.0248 43.9833 67.0248C44.1791 67.0248 44.2306 67.0934 44.234 67.2789C44.2375 67.4644 44.1413 67.4919 43.9902 67.4884C43.238 67.4884 42.4858 67.4884 41.7371 67.4884C41.5104 67.4884 41.4795 67.3957 41.483 67.2068C41.4795 66.6676 41.4727 66.1387 41.4727 65.6132Z" fill="#F7F7F7"/>
<path d="M23.038 65.6172C23.038 65.0917 23.038 64.5662 23.038 64.0407C23.038 63.8312 23.0724 63.7248 23.3128 63.7351C23.8005 63.7557 24.2882 63.7351 24.7759 63.7591C25.5624 63.8106 26.0501 64.2846 26.0707 64.9749C26.0913 65.734 25.6826 66.2011 24.8652 66.3075C24.5128 66.3459 24.1581 66.3585 23.8039 66.3453C23.6322 66.3453 23.5669 66.4003 23.5772 66.572C23.5876 66.7437 23.5772 66.967 23.5772 67.1627C23.5772 67.3585 23.5944 67.4821 23.3231 67.4821C23.0518 67.4821 23.0243 67.3825 23.0312 67.1559C23.0483 66.6441 23.038 66.1289 23.038 65.6172ZM23.5772 65.0505C23.5772 65.8748 23.5772 65.8748 24.3844 65.8748C25.1915 65.8748 25.5315 65.6137 25.5418 65.0539C25.5521 64.4941 25.1983 64.2193 24.4084 64.2159C23.5772 64.2125 23.5772 64.2125 23.5772 65.0505Z" fill="#F7F7F7"/>
<path d="M85.6532 67.4339C85.2411 67.5506 85.011 67.4339 84.9286 67.0664C84.9188 66.9726 84.8883 66.8822 84.8391 66.8018C84.7899 66.7214 84.7234 66.653 84.6444 66.6016C84.5653 66.5502 84.4758 66.5172 84.3824 66.5049C84.2889 66.4926 84.1939 66.5014 84.1043 66.5306C83.9348 66.558 83.762 66.558 83.5925 66.5306C82.9606 66.4275 82.5106 66.5752 82.3492 67.2793C82.2737 67.6228 81.968 67.4167 81.7207 67.4682C82.2737 66.2593 82.806 65.0881 83.3452 63.9203C83.4586 63.6765 83.9051 63.6387 84.015 63.8722C84.5679 65.0503 85.1037 66.2318 85.6532 67.4339ZM84.4992 66.1047L83.6853 64.2913L82.885 66.1047H84.4992Z" fill="#F7F7F7"/>
<path d="M104.836 67.4374C104.767 67.4762 104.69 67.4969 104.611 67.4974C104.533 67.4979 104.455 67.4783 104.387 67.4404C104.318 67.4025 104.26 67.3477 104.218 67.281C104.176 67.2143 104.153 67.1381 104.149 67.0596C104.141 66.9686 104.113 66.8804 104.067 66.8017C104.02 66.723 103.957 66.6557 103.881 66.6049C103.805 66.5541 103.719 66.521 103.628 66.5082C103.538 66.4953 103.446 66.503 103.359 66.5307C103.189 66.5562 103.017 66.5562 102.847 66.5307C102.218 66.4482 101.72 66.5479 101.569 67.2863C101.528 67.4889 101.477 67.4786 100.958 67.4477L101.803 65.5965C102.055 65.047 102.304 64.4963 102.552 63.9445C102.571 63.8757 102.615 63.8163 102.675 63.7777C102.735 63.7391 102.807 63.7239 102.878 63.735C103.029 63.7521 103.177 63.7075 103.266 63.9101C103.781 65.0641 104.296 66.2078 104.836 67.3447C104.846 67.379 104.836 67.4134 104.836 67.4374ZM103.733 66.1117L102.919 64.2879C102.655 64.8821 102.438 65.3904 102.208 65.8884C102.133 66.0567 102.146 66.1185 102.349 66.1151C102.785 66.1048 103.228 66.1117 103.733 66.1117Z" fill="#F7F7F7"/>
<path d="M124.099 67.4306C123.683 67.5611 123.45 67.4306 123.367 67.0459C123.271 66.6029 123 66.4827 122.567 66.5273C122.187 66.5582 121.804 66.5582 121.423 66.5273C121.334 66.5102 121.242 66.5291 121.166 66.58C121.091 66.6308 121.039 66.7095 121.022 66.7986C120.981 66.8803 120.944 66.964 120.912 67.0494C120.826 67.4478 120.568 67.5405 120.184 67.4375C120.723 66.256 121.259 65.0779 121.805 63.8999C121.908 63.6835 122.358 63.6492 122.457 63.8552C123.014 65.047 123.553 66.2388 124.099 67.4306ZM122.138 64.2846C121.873 64.8822 121.657 65.387 121.427 65.8851C121.355 66.0465 121.351 66.1186 121.561 66.1152C122.004 66.1152 122.45 66.1152 122.935 66.1152C122.677 65.5073 122.426 64.9406 122.138 64.2846Z" fill="#F7F7F7"/>
<path d="M127.133 67.5201C126.695 67.5103 126.267 67.3923 125.886 67.1767C125.687 67.0668 125.735 66.9466 125.804 66.792C125.893 66.5825 125.996 66.6993 126.103 66.7611C126.328 66.8998 126.579 66.9912 126.84 67.0296C127.102 67.068 127.369 67.0526 127.624 66.9843C127.743 66.965 127.851 66.9059 127.932 66.8166C128.012 66.7273 128.06 66.6132 128.067 66.4932C128.073 66.3795 128.037 66.2675 127.966 66.1783C127.896 66.0891 127.795 66.0289 127.683 66.0089C127.339 65.8922 126.972 65.8166 126.621 65.7033C125.996 65.5006 125.752 65.1846 125.794 64.6729C125.823 64.4288 125.936 64.2024 126.113 64.0317C126.29 63.861 126.52 63.7563 126.765 63.7353C127.248 63.6431 127.746 63.6969 128.198 63.8898C128.373 63.9585 128.442 64.0341 128.359 64.2333C128.277 64.4325 128.174 64.3775 128.016 64.3157C127.644 64.1364 127.222 64.0891 126.82 64.1818C126.546 64.2505 126.333 64.3878 126.316 64.7038C126.298 65.0198 126.511 65.1503 126.759 65.2293C127.102 65.3358 127.446 65.4045 127.789 65.5144C128.373 65.7033 128.617 66.0158 128.589 66.4932C128.567 66.7316 128.464 66.9553 128.298 67.1281C128.132 67.3008 127.913 67.4123 127.676 67.4446C127.496 67.4799 127.315 67.5051 127.133 67.5201Z" fill="#F7F7F7"/>
<path d="M94.907 67.5089C94.5025 67.5311 94.1015 67.4238 93.7622 67.2027C93.4228 66.9816 93.1626 66.6582 93.0195 66.2792C92.8763 65.9003 92.8576 65.4856 92.966 65.0954C93.0745 64.7051 93.3044 64.3595 93.6225 64.1087C93.9691 63.8561 94.3837 63.7135 94.8124 63.6994C95.2411 63.6853 95.6642 63.8004 96.0267 64.0297C96.1228 64.0984 96.3701 64.1362 96.2259 64.3732C96.0816 64.6102 95.9889 64.617 95.7553 64.4522C95.4692 64.2458 95.1187 64.1485 94.7672 64.1782C94.4157 64.2078 94.0864 64.3622 93.8389 64.6136C93.6073 64.8518 93.4649 65.1625 93.4355 65.4934C93.4061 65.8242 93.4915 66.1552 93.6774 66.4305C93.9085 66.7449 94.2531 66.9568 94.638 67.0209C95.0229 67.0851 95.4176 66.9964 95.7382 66.7739C95.9442 66.6262 96.0644 66.6194 96.2052 66.8186C96.3873 67.0727 96.1125 67.1036 96.0095 67.1826C95.6879 67.4097 95.3004 67.5244 94.907 67.5089Z" fill="#F7F7F7"/>
<path d="M68.7021 65.6068C68.7021 65.0676 68.7021 64.5284 68.7021 63.9891C68.7021 63.8037 68.7571 63.735 68.9494 63.7384C69.6707 63.7384 70.3942 63.7384 71.1201 63.7384C71.3055 63.7384 71.3708 63.7934 71.3708 63.9857C71.3708 64.178 71.2746 64.2192 71.1029 64.2192C70.5774 64.2192 70.0519 64.2192 69.523 64.2192C69.2998 64.2192 69.2414 64.2845 69.2379 64.5043C69.2379 65.5141 69.2139 65.5141 70.2168 65.5141C70.44 65.5141 70.6667 65.5141 70.9037 65.5141C71.1407 65.5141 71.1441 65.5862 71.1475 65.7682C71.151 65.9502 71.0582 65.9777 70.9071 65.9777C70.4435 65.9777 69.9832 65.9777 69.5333 65.9777C69.3307 65.9777 69.2517 66.0224 69.2654 66.2387C69.2654 66.541 69.2654 66.8432 69.2654 67.1455C69.2654 67.3241 69.3169 67.4889 69.0078 67.4889C68.6987 67.4889 68.7193 67.3653 68.7228 67.1455C68.7021 66.6337 68.7021 66.122 68.7021 65.6068Z" fill="#F7F7F7"/>
<path d="M145.021 63.7794C145.095 63.7463 145.176 63.729 145.258 63.7285C145.339 63.7281 145.42 63.7444 145.496 63.7767C145.571 63.8089 145.638 63.8563 145.694 63.9159C145.75 63.9754 145.793 64.0459 145.821 64.1229C146.106 64.6381 146.432 65.1292 146.779 65.689L147.761 64.0954C147.995 63.7176 147.995 63.7176 148.503 63.752L148.204 64.25C148.005 64.5763 147.827 64.9197 147.603 65.2254C147.379 65.4917 147.212 65.8016 147.113 66.1356C147.015 66.4695 146.986 66.8204 147.03 67.1659C147.064 67.3651 147.009 67.4681 146.762 67.4716C146.515 67.475 146.477 67.3445 146.508 67.159C146.548 66.8266 146.521 66.4894 146.427 66.1677C146.334 65.8461 146.177 65.5466 145.965 65.2872C145.635 64.8201 145.34 64.2981 145.021 63.7794Z" fill="#F7F7F7"/>
<path d="M131.45 65.8093C131.45 65.4006 131.433 64.9954 131.45 64.5866C131.45 64.305 131.402 64.1711 131.089 64.2089C130.869 64.2363 130.643 64.2089 130.419 64.2089C130.255 64.2089 130.148 64.2088 130.145 63.9822C130.141 63.7555 130.244 63.7314 130.43 63.7314C131.299 63.7314 132.164 63.7314 133.033 63.7314C133.212 63.7314 133.294 63.7692 133.294 63.9719C133.294 64.1745 133.212 64.2191 133.033 64.2123C132.854 64.2054 132.583 64.2123 132.363 64.2123C132.065 64.1814 131.951 64.2672 131.961 64.5935C131.986 65.4453 131.961 66.3108 131.961 67.1557C131.961 67.324 131.996 67.4785 131.718 67.482C131.439 67.4854 131.426 67.3618 131.429 67.1385C131.457 66.7023 131.45 66.2558 131.45 65.8093Z" fill="#F7F7F7"/>
<path d="M107.359 65.3798C107.359 65.8159 107.359 66.2487 107.359 66.6815C107.359 66.9287 107.407 67.0249 107.678 67.0249C108.149 67.0009 108.626 67.0249 109.1 67.0249C109.258 67.0249 109.409 66.994 109.413 67.2482C109.416 67.5023 109.292 67.4886 109.121 67.4851C108.434 67.4851 107.778 67.4851 107.105 67.4851C106.881 67.4851 106.816 67.4199 106.819 67.1966C106.819 66.1457 106.819 65.0913 106.819 64.0403C106.819 63.8239 106.874 63.7484 107.105 63.7415C107.335 63.7346 107.372 63.8548 107.369 64.0506C107.352 64.4868 107.359 64.9333 107.359 65.3798Z" fill="#F7F7F7"/>
<path d="M74.1961 65.6373C74.1961 66.1627 74.1961 66.6917 74.1961 67.2172C74.1961 67.4335 74.124 67.4816 73.9248 67.4782C73.7256 67.4747 73.6432 67.4404 73.6466 67.2206C73.6466 66.1399 73.6466 65.0591 73.6466 63.9784C73.6466 63.7345 73.7737 63.7448 73.942 63.738C74.1102 63.7311 74.1995 63.7757 74.1961 63.9749C74.1961 64.5279 74.1961 65.0843 74.1961 65.6373Z" fill="#F7F7F7"/>
<path d="M98.513 65.6135C98.513 65.0743 98.513 64.5317 98.513 63.9924C98.513 63.7657 98.6126 63.7417 98.798 63.7348C98.9835 63.728 99.0659 63.7967 99.0625 64.0027C99.0625 65.0812 99.0625 66.1631 99.0625 67.2415C99.0625 67.451 98.9835 67.4785 98.8083 67.475C98.6332 67.4716 98.5061 67.475 98.513 67.2346C98.5233 66.692 98.513 66.1528 98.513 65.6135Z" fill="#F7F7F7"/>
<path d="M52.2986 65.5719C52.2986 66.1248 52.2986 66.6812 52.2986 67.2342C52.2986 67.4265 52.2402 67.4883 52.0513 67.4746C51.8624 67.4608 51.7457 67.4952 51.7491 67.241C51.7491 66.1626 51.7491 65.0807 51.7491 64.0023C51.7491 63.7859 51.8247 63.7344 52.0239 63.7344C52.2231 63.7344 52.3055 63.7722 52.2986 63.992C52.2883 64.5174 52.2986 65.0464 52.2986 65.5719Z" fill="#F7F7F7"/>
</g>
<defs>
<clipPath id="clip0_77_2396">
<rect width="150" height="67.523" fill="white"/>
</clipPath>
</defs>
</svg>
