<?xml version="1.0" standalone="no"?>
<!DOCTYPE svg PUBLIC "-//W3C//DTD SVG 20010904//EN"
 "http://www.w3.org/TR/2001/REC-SVG-20010904/DTD/svg10.dtd">
<svg version="1.0" xmlns="http://www.w3.org/2000/svg"
 width="75.000000pt" height="40.000000pt" viewBox="0 0 75.000000 40.000000"
 preserveAspectRatio="xMidYMid meet">

<g transform="translate(0.000000,40.000000) scale(0.100000,-0.100000)"
fill="#000000" stroke="none">
<path d="M600 370 c-30 -43 -25 -59 25 -81 27 -12 45 -27 46 -37 0 -10 3 -12
6 -4 2 6 10 12 17 12 20 0 56 44 56 68 0 12 -10 30 -22 42 -25 23 -22 22 -71
25 -31 2 -41 -3 -57 -25z"/>
<path d="M0 120 l0 -120 200 0 200 0 1 63 0 62 22 -42 c11 -24 28 -43 36 -43
9 0 25 21 38 48 l21 47 1 -67 1 -68 30 0 30 0 0 120 0 120 -31 0 c-27 0 -33
-6 -57 -60 -15 -32 -30 -59 -33 -60 -3 0 -17 27 -31 59 l-26 59 -116 1 -116 1
0 -95 0 -95 -60 0 -60 0 0 95 c0 95 0 95 -25 95 l-25 0 0 -120z m350 50 c0
-18 -7 -20 -60 -20 -53 0 -60 2 -60 20 0 18 7 20 60 20 53 0 60 -2 60 -20z m0
-101 c0 -17 -7 -19 -60 -19 -53 0 -60 2 -60 19 0 17 8 20 53 23 63 4 67 2 67
-23z"/>
</g>
</svg>
