<?xml version="1.0" standalone="no"?>
<!DOCTYPE svg PUBLIC "-//W3C//DTD SVG 20010904//EN"
 "http://www.w3.org/TR/2001/REC-SVG-20010904/DTD/svg10.dtd">
<svg version="1.0" xmlns="http://www.w3.org/2000/svg"
 width="147.000000pt" height="79.000000pt" viewBox="0 0 147.000000 79.000000"
 preserveAspectRatio="xMidYMid meet">

<g transform="translate(0.000000,79.000000) scale(0.100000,-0.100000)"
fill="#000000" stroke="none">
<path d="M0 235 l0 -235 165 0 165 0 0 45 0 45 -115 0 -115 0 0 190 0 190 -50
0 -50 0 0 -235z"/>
<path d="M342 233 l3 -228 156 -3 157 -2 4 45 3 45 -112 0 -113 0 0 50 0 50
110 0 110 0 0 45 0 45 -110 0 -110 0 0 45 0 45 110 0 110 0 0 45 0 45 -160 0
-160 0 2 -227z"/>
</g>
</svg>
